<mxfile host="app.diagrams.net" modified="2023-05-22T00:05:44.150Z" agent="Mozilla/5.0 (Windows NT 10.0; Win64; x64) AppleWebKit/537.36 (KHTML, like Gecko) Chrome/113.0.0.0 Safari/537.36" etag="gPIV6C77mDNwh2A9lQn1" version="21.3.2" type="device">
  <diagram name="Page-1" id="lGiLZFOS3aG2xYLQHrk5">
    <mxGraphModel dx="1434" dy="756" grid="1" gridSize="10" guides="1" tooltips="1" connect="1" arrows="1" fold="1" page="1" pageScale="1" pageWidth="850" pageHeight="1100" math="0" shadow="0">
      <root>
        <mxCell id="0" />
        <mxCell id="1" parent="0" />
        <mxCell id="rUgAbl-kOmLErmbOYtcg-22" value="" style="rounded=0;whiteSpace=wrap;html=1;fillColor=#1F1F1F;" vertex="1" parent="1">
          <mxGeometry width="850" height="630" as="geometry" />
        </mxCell>
        <mxCell id="rUgAbl-kOmLErmbOYtcg-1" value="" style="shape=image;verticalLabelPosition=bottom;labelBackgroundColor=default;verticalAlign=top;aspect=fixed;imageAspect=0;image=data:image/png,iVBORw0KGgoAAAANSUhEUgAAAykAAAI0CAYAAAAZVWabAAAAAXNSR0IArs4c6QAAAARnQU1BAACxjwv8YQUAAAAJcEhZcwAAEnQAABJ0Ad5mH3gAAJq7SURBVHhe7f1/dFXVvf//vuzp+Ry/H8wGhCJU0iRAUeSHTbF2gAErmj9y4ZhBcy1XrRW9whh16Ln1x3ccPoqf4fiIXjq+/ug97bDjgl/F+utL+URHevDmjyhWiDC0IjVAsZRAOEET0yjJRj4fPue09c651tx7r732TrJ/JjvJ8+FYrr3mXllr7bU3yXzvOd9znldRUfGlAAAAAKBEjPkg5cc//rF7NLhf/vKX7hEAAACAkTQugpRfPPsLt5XeXbffRZACAAAAlIivuDUAAAAAlASCFAAAAAAlZRwGKX/V//XCKXU2meWF/6H1rhQAAABAaRh3Qcr/8bMuXaUL9Uj9TJXf8p+1xZUDAAAAKA2FCVIiS7Rize2qX3OD5kZcWUn6d11RJR37LcEJAAAAUKryDFKmaG6dCU6uko4cOuPKStj3/qJp7iEAAACA0pRXkDJjab1m/luTmpr36QtXBgAAAAD5yCtI6dr7rHYd/sxtAQAAAED+xl3iPAAAAIDSNq6ClPVX/U9FzH/v/5+uAAAAAEDJGRdByvoHP/PmRfl/aZLK6yP63105AAAAgNIzLoKULY9OMcHJTP1/1GeClaj+D1cOAAAAoPSMq+5eW9753xQ1/13x/3QFAAAAAEoOifMAAAAASkpeQUrZ/BtU7800f7tWLCizJZpnJ3e0ZXVLzBYAAAAAZOe8ioqKL93jMenHP/6xfvHsL/yN7/0PHb7nc/X8ZqauCYzwddftd+mXv/yl2wIAAAAwksZXd6/fflU97iEAAACA0jTOclL+Tp9GpTnf+x9a70oAAAAAlJZxF6T8P26ZoXf0uR5qOqXOFwhWAAAAgFIzDkf3soHKTG/elPJb/rO2uFIAAAAApWEcBikAAAAAStm4GN0rE4zuBQAAAJSGMR+krF69Wnv27FFvb68rAQAAAFDK6O4FAAAAoKQQpAAAAAAoKQQpAAAAAEoKQUoOpm/6UA+9eUJ3b1pntjbrFvP4oTc/VF2t/3ypG4nrX37NSr1274168ZqI2SrXE+bxa/eu1Mbp/vPIVexe1mit2Yrd59cayv2nAQAARiGClLy1q7ffrnvU3eIVFIkfTPiBRSEN1/UH9et01F+f6vYKUCC7/TdTZz/31wAAAKNR3kFK2fwbVL/m9sRSt0Rl7rmxqvuTHm/d98lWb52i9iXd7bVOhJYtm90OI2vI6y+CWOX5014vOhnc9Pl60WsdcMsd87XcPZW1+LHybLUJX9OAx4u1bAy2X3ifG/XEQvdUXOo+6Y/lAr7oaR33CwAAAEa9vIIUG6Cs+MYp7dr+rJq8pVVdkXlaMQ4ClYSt6rajG/f3qMsviOtorNIj18aW7eqYvcYEKy2qds+XhoGvv3iiOnXarlIr1msbTGX8pkp99PIrWv2kW545rN3u+cxFtPEOc6xV0hsHMgiMBmMDlNA1NZ2MaPFNoaDBC2RqNOtk6yD72eCjRmpJHOspc32zasOBSqfuc88PfKw0/nxaZ80qo2AQAACgRBV8nhQvcFkgHWneoaMlUE8akXlSbEvKhqXqM0HKC0+7MsuVT2rfrkfWb3CFUvWWE1o1221Ygedt/si6JTaPI72+fY/p5xuDLSK2W9gaVbot6Zh2XlurA24re7fq8cbrVRX9QD+77VHtcaVFsbBGr9VO1P6XX9emPLuB2WDnus9f1w/finp5GveYyLAQx43zApdF0gH/HJY9Z/3kNj2VFFTZYGmlFp82gUtjpysL8wMXL7gZcB/DnfNTE+Dcd9CVAQAAjEHkpAynlpvV2m7WsxfHW1NsELLg94EWl8171WdbXFzXsO6NlydaYsy2DUoSrTNVyQGK181sjSYF9tnZPker8mm9uW2hquw6comWX+2VFImpzH+3XDrZVpBAYlvjK/HgYXiUa2GFdLa9M7nVZ+EiLbYxZkWFl9gOAACAoRU8SLlgou3o9YXO0NtkENM03Y2kZYOQpNaWNIFMpqpvWKpJ/Xu1IxC4HFhvg5s5qsk14f65gzph19E/avfbXkmRTNRkU5k/+7n8blqBXIzUfI0S8LXJmmBW8W5V0yO6KLhteCNtmfe5qcW2jkzUzIG6abmfHTzZ3QRxqxZpQrRNTbSiAACAMa6wQcrFdbrSjnza2T6M+Q2jS1fP0NFbJvuk2qwFs6W+P/xWyQ0R/uhdk6YF+5Nl43nd39CghmJ39XIV9QnVi6SdQ+VrjLRyPVHrfdB1MG3A4OfD3HNhm3kNrdrmStNzwYei+uhI+H33jxNLml8c6VRTTvk5AAAAo0vhghQToNTXzJCiR7Rr71FXiLAZ08L5JbF5ShLLYDkoAzKV5klmNWnJA0nHeujNB3TFRH+X0eDsgT1J3b12v7VH+03dfdbcwLwfKSNt2cWfJyR7wUAgsQwcFLn8ERNU7H85XQBin1+pS9tfHzy/xGPPbYMP6XhLunyZqDY9E0ieb5HqzbX5c80AAACMXYUJUiJLtMIGKOrSe837dMYvRYp1mj7VrPoP6YA3J4lLcu/fq62BPJOt+3JoSWnpVJ9ZhXNW4ksgUb8kdUf1qXs4pO7D+mGs4h5fhmqxGEgoEHBL+sR0G1TYACVNUOGuf1atP3JXMB9m+VQbJabOCbO2wQ9Qzh54PbNE+IOtajopTZhdnvuQzAAAAKNA/kGKDVDq5qnMBijbm+nmNZg7f+C1asS7ZN252BuFq+ONm0NdtNIZqttWvt26BmJH92pU43MPapkrKQ5/vo8JF4abfWK5KoPlawyHYKtHuiCmUwdNAKGUnJGIls82P3TyZFIQ5Y0EZhPtA6ODDYdbnzDvpXk/f7WhuO8mAABAPvILUghQMndnix5qmGPq4oHE9j/1eK0fld9KTPJohyNO393LzWcyu051Luk+2VY1v3HMPL+msLPSD9voXlFterdTqqhJ6mq1tsG2XHTqjWEdqStsqADFt+2dNp2NLNL6QHcsv7WkU02Brl+5Big2Ed/+3PF3c81LWaaZF/qPJnyn3oSfAAAApSmveVJmLL3dT5RPx+amlEDXr5GcJ8XmiCRE9f7my9XsdfMKiAUvju2utUN3mUClJ838JutU92pyjknKPCnZnDsjwzhPiuXNlRL4UEXD845kxp8bJV2wZ2R7zPA1JbG5KYGuX24uEzvyl88EKMGuaCnPJ4sHQen2y/FeJLntcTWusmHnCf2m4X4975cCAACUlIJP5lhqRiRIAUrWMAedAAAAOSjsEMQAStqtT5gARWf1wTYCFAAAULoIUoDxwHbzamzU9ZW2m9eP9GhRJ+YEAADID929AAAAAJQUWlIAAAAAlBSCFAAAAAAlhSAFAAAAQEkhSAEAAABQUghSAAAAAJQUghQAAAAAJYUgBQAAAEBJYZ6UHEzf9KHWLYmob99j+vnG2brlzTWqVFTvb75czS1uJ6SxTnWvPqArJkodjVV64WlXnKXqLSe0arbbMPI5lrTZvX/HtPPaWnW591bt2/XI+g1unwJbWKPXasulk61a3divjXes1GJzyuMtr+i+g24f5CkSv68xZw+8rh++FU3c/xjvfeh0G1nyjjVR+19+XZu6XRnGvOXXrNQ91RH3mZqoJ+6t0SzzN4DPAQAUDi0peWtXb79d96h7FAUotqL/0KsvabrbLhm1L+nuN0/oljvddhoH1lfpkWvNsnmv+lxZoXR/0uOt+3ravXXxRXXqtL8+/WevAHmLBSidanryFa12ixegWAdNUOKVva79rgjIXb9Oe5+jfp0iQAGAgskvSLm4TvVrbk9e6paozD09VsUrsp9s9dbp2NaWh0xlO3X5UHW1bqdRzbaKpHt9gWXLZrdvzFY1f98PMHJv+Sg0F2T296jLLyi+P5/WWbM6+7kX3aa1tuFGvXZveFmpjeGo0n6Tn7JfYN/p8/Wi2X7xmkCTQoD9Rvi1e2u01m1nLOW8ORyjWKaX61Lzcs8eaNM2VzR2lOuJAd5P7zNzx3wtd9ulzv/slehnaAi7/W+m9GkvUS4AFEt+QcrHzWra/mxgaVVXZJ5WjINAJWGrum1PsrSVXNsFzH3rH1/GSpewRMDhLY3HTFno9Raru1Qx/anHa50ZLAAttOOf24pOmm9ho216KtAS8NQBafFN6SqotptJYr9YK4HX7aQ7qk/9nQYWPa3j7mEmvMplbbnXPS1xvpNaWGIVZCqQpcoPtO6pVuhzW3qfocy41tAs/x0BAAZX8JyUsvk3aMWCL/Te9ubh+2Z6EMXIScmEn7eiQfNU/NwKPxfC1D8DXJ5EUl5EIp/Dl5oD4x1P5md2lOvuDUs1yZXHczZsV6pAeYr+vdr6/ZuVU4+FO1v0UMO0AV5vhtceyDMJS5t34l5P34A5KUOfN1u3PtGo6yvP6oN/+ZEefdsVFoH9Vrx+sglSnjms3a7M8sorAn3fh8yJsBXCGl0Uy8cI8frWz+5IOc/A/OPNGiqPw7bg3FSpj8x1nbrKXrMrt4FXyrncMd2WfZ/ir8c7ziJ9OkC+jp8b0K+mJ1sTrSZD/EyC6xZ2euDX4t9vt2GFX3ea++9fkw0kbXezwHWlvM7w85kY+P1M95lJXIszwPsW3i+ev+Mk7nObZgZzfdK+n4Pz7+nQrz2bc4bfp4GvP/X9SNxLf1vmc9M0NXg/cnmfAAD5IidlBB34vW19mKMF4fyLOxf7ifg7YgGKDVpMZbvXBCCulWLrPumKDWm6js1eo4c2TFNrfL+oKhvcfi036+eufKdNubBBidv2llwDlCEFWl28FpdU4TwTG5TEr8ss2XcPy+KeZexWLay06wm6ZMkyr2S4bXunTWdN5frSeYGK56D8/vITLoxHaoUxOZLBN94Rr+Xnus9fd9+Ut+p4ZJHuaQgkrXvdxvyKYuwb9ViL0RMLzfOuJeiiqYO8Xu8bbFvBdN2GTIAywRTPqs2vK5Gt2C48Gvim/2Vz7yvM9QavPyRW2beVZPt64xVbr9td8utsOlmu+hyuK1P+tSS3Vjz1+SL/vgbYCr5fgU+8TlWvTNNiZ693pS5tH+T9HIq5D9eZYCLzrnhDndN/373gLHT9g71Pg7GfGy9w945n85bMNYzKFh4AGN0KG6RElug7C8p05tB7JdGKUvKe3q8Os6r8VnLuRvW35pi65SEdcN/4T99U548+Feg+1b3xF3q/P6IrbgjnfdjWgkTLTPfbh0ylP6Kp33QF40R29yxTz+ugfcNMmPDHfXu8kpGSc9DhVZYTuS2zLjQVURPFZP5NeKeaDpiox1YUTeUwXW5EkpOtgW+0O3XwpFnFA5yINn7XVCST9pF2v7XHS2if9V1bMYwlJTteUJPu+jt1X6CSanN+krujZf9N+O63Xk9uiek+rDfs9VdUpA8szLXFApTg67HWXmUCp2ibtgTKtzWaCrepZF831D3MkXdvoh3aHfjmIeU1uaDheEvg/pjXucW8xxOqF6W8TntPB34/M/C1yV4AmU1XvMHOufyaRZplP5PBlhV3/apYlJrDlYmklpqoNr3baT6qlVqey7EAADnLP0gxgcmKeNL8PJV1tmrX4c/ck+OdqRBvCCeUt6jaPSttUMs+88d09uJA2WYtmC31/eG3rlVjnaovM5WN9v2hLmEuF2ZqefIIXYHgZvzK8p5l4fn7GtTQUNyuXoNKm2Pit1gkWg3MEv/mNzZ6mG/5vEpTScymJSaVreh632ibxxPsN9ZJ50t2/OhgXcJcgnvKAAIm6Gg3/y4ik71hXe31x4Ky5VPtOnb9Ec2c7BUPGz9/KI15tttXedoAxX7bv9C2HrR3hoLBIrVyOd612mBykFYA//NgKv6hbnF+YvhEzUz6h5I6At22RhMAZtHdy3//ggItYGk/R4Od0wQqs83nIE0uyO4jHV6L4+SvuYIspLxP3kAXuR0LAJC7/IOU6D7tCiTPv6caE7DcoLm514HGENuqkdxt6ZFQ/onf0hHo8uV19Tqm1o2xxO3Z8v6u225cScHO4Dkc49sYvmfTI7rIPUxIkzgfrjh63zzbSp20/0CnJswuj1cGBxtlbGCJloun4i0raUYfy8DA36r7lWSvsh2+/kDFPrfrz0SoAm2WpPyOOBMkVvtdi9K+FveexQO6+JI8j0uhecFki20F8Fu9vHOGukB5rS3mddYnXZdZgvPIFFBsVKyExOeoybaQ5GKQlsBBuwkCAEpawXNSuva2qktlmlk+xZVgUC2/1THzdzvW5cvr6pXUAuCGyLVJ9EnBjluKlkcymo3he+a6ywzaQhES//bftlyow1ReT+q4132lMC0RXmXY62JlKutXFbJyGxjxzGtVmajJ9vqPnNZZr8uV2TZ10OKM4uUnUc+yXX9cJToekKXwg0Rbybb5DOGcj1jrl5+nkjhWfMl1IslMxOeEcUFAKKfG/2zYxPDQNXnLQIMx5MENvz1cwQMjvAHA6EXi/IjbquY3jrkuX35Xr47fB4fuzb+LUjpdPeaP98RpmuG2S0ZLp5c4P+nr6/ztnBTnnll2dK/Gxl/pwatdwbByORxpuucMyVTybdceeV1ZbL9+22WqON2MMtbdqY/Mx3DW3HBg47rxnDzp5UnEv31fWKFZ9ltz7+fKtdALBoo0CaY9l1kdfzfzrkzbGv3JIWfVhluUCt+tK/VYLuAcpFXBdpPyApVADkn6bl1F5N7zYEte7ly3wDQ5QgN1Y0vi3uOhZHSswdz2uPmdYX5vPPegRma4DQAYnQocpEzR3LoaU/Ht0hHyUjLnJdDP0YIti1XZv1ctoZGsDuzYq76JS7UuZXLE3PkTUs5RzaZ8goFi8FtBJi35QSBPJ3vFuGcjO7pXbBZ1U3EOJjlnbKIuNQHwR0dMpc7YdrTTS4y+1DzO6ttmm3ifZtQkLzHctii8k02rgEtKrqhJan1Yfs0y8zoDx/K+fS9XvZ2bxWtB8iuns2rtcL5FmuXbfeMfDKD8UbAGawEwr+cZm6tjc4SCo3YlXueQAw0MyQ1cEEoKT7ln3uclPHKYnxuTFMgcbDOBVfh6i8nci51tOjtErkymdr/V5g0+UB/8TJrP6HpvAIPECGJ+MBYLbA1v6OjUz3GKNMfK1rKLpvkPIt9W/W3+QwDA0PKaJ8WfEyV52sYzh5pKKnF+ZOdJSVchST9XR2yekL59j+nn8XyUIDd3ituKCc4f4h1jamiuk0HmEkm5xmLNkzLY/Cxpz5n6WhOvM/198IXnnBn6nmVrWOdJCcz74Ek3x0WaeTpSxCtkwfkeXHcm88iOnjT4fCIh6Sp44bkrbDCTZq4S73WF539JOV7wOq3YtQbK3fHtiFkp83QMcO6YtPfWSboXoeuy3bW2aJkbrtddR7r7H7s28289fXlQaJ8MxYY6TgjfMyvxHsekT+wf+vOWGM64UF3AEkF3UPD6Mj9n6utM95lOvmf2fvnzr9jhjf1zph7HyvrfR4pb9Xjj9aoyj07sbND9z/mlAIDBFXwyx1IzUkEKAGA08YOUgSY+zcdwfbkBAGMJOSkAABTLbY+bAEU6+7utBCgAkAWCFAAACs5282pU46oqr5vXjzaP7ASwADDaEKQAAFBwz+v+Bjv5K3koAJALghQAAORPLFnofBQAQG4IUgAAAACUFIIUAAAAACWFIAUAAABASSFIAQAAAFBSCFIAAAAAlBSClBxM3/ShHnrzhO7etM5sbdYt5vFDb36oulr/+TGl9iXd7b2+FlW7ouKJ3Uv/XLH7/NCWzf7TRWFnmb5Rr91bo7Vma/k1K81js91Q7j89RqxtsK8xsTyx0D0xLo2P9xwAgNGMICVv7ertt+sedbd4BaNC9RZT+X/1JU1326Wo+5Meb93X0+6th8Nu/83U2c/99VixrfEVrX7SLC+36awrS8+vwL94TcRtj31j9T0HAGA0K2CQMldXrrld9WZZMX+KKxub4pXnT7Z667RcC4Tf2jKKtdysn19bpUeurdUBV1Q8LuDr71GXXzAM+nXaTosQPa3jfsHAps/Xi64lghaJ4RLRxjuS73nKknULSBbvOQAAGBEFC1JmLK3RDPd4fNmq7l6zGtaK9Tjxpx71mdWgwWCh/fm019LwaW/yhG5el6CbFkkHXvdbJNxycK7fZQjFEtWmZxL3e3VLp1e2/+VAWaMty8MA7zkAABg551VUVHzpHucuskQr6ubpi9ZWqaZGFxxq0q7Dn7knR9bq1au1Z88e9fbaSGIY2ZaUDUulfY/p5xsHr2Tb3It1SwLda9q365H1G9xGwJ0teqhhjtsw0u0X3kfHtDPWCuKuaZJXnkb/Xm39/s3qto/D+wafCxny+r1jLdCxzZer+4YTWjXblQ9yzEws2/Ar/eQ7E3RiZ4Puf84VFoNtQXEBypCzUbt9J7hNv0L9ujbFX6RtGVipxadbtfqdSNK+Z5OOb7td1egiW9a7SK/VJloLjre8ovsOug0r5ZydanqyVdvcVhK376ehY9gg7J7qgbt4JV+bMdQ5vecr9ZF57aeuulH1Fa482qannjms3W4zawtrzL2YGLqnPpt3Y88TvtaBygEAQOkqQEvKFM29ap7KOlv13seuCBlap7pXT5gKfo8JJGyXKrtsV8fsNSn5Il4OiQk+Ohpj+5nl94t1y51uB8sGA9/an3j+2sf0fv8crYolvce7blVpp03zsEFCfF+zBAOG8L5pZX79tnJ+xYYTqul5LLHfxKVal3NS/DItv8SvIlctuNVbF8vyeZWmMh7VR0eGquCawGKVtCX2Db9Zmk5GtPimldoYTv6pMJVtrxLv9m3p1ITqlSndx2zZa7UyAYC/31MHoppVmzherIXHBh2Jc5ar/t405xzE7rdiLUStXhcoW6GPHc8uwcp95ue0r/1GXfd54NiRRbqnSAnq2xpf135zmROqFyVat0xQQ4ACAMDok3eQUjZ/heZFuvTe3qOuBBm78we6YmJU728O5nts0AuNxyRTga+NBSAm+KiZLS9AeeFpV2Y9XZu8bQOLpJaVrWp+wxxLc7QgGMwUSqbXH9O+PdCqtEGHbPAztTzH5P092v1HPwX8xKHnvXVxRLR8dkSKdmj3kE0+nbov1Eqw7R2bqB7RpfPCrRS25SHQGnDwpBccXDQ1tJ9teQi0UOw+0uEdb/LX7JYJDKojXgU82CqyrdEGGiZAuKoYwUCW5zzZGggOOu3LlCabe+oXFJjtGmavw1yjFwiZoNG2QCVdAwAAGA3yDFLmat6CMp059B75GDmo/pbtlpVmVLCn96vDrCZ93U+6n371Ak3SMR0KBiSZcnkdxZDp9cd0/D5NF7Y87Nn8IzU0FLmrV766o/rUPUySkrRtApxQi4XndDS5a1T3Yf3Q7OcFCAsrNMusUnMpihgMZHnO40fzzBfJmrmPNm/FtlTdW2Ou1QSD+easAACAYZdXkOIly0eP6Hclkn8yKg2ScD9pmp+8MWNaZND9grxuYd5cI24ZLAelEDK4/vEkPudGfLEV5WKK6vSf3cOwyOQinXskzpmFg61qsgGTcbxlgNwcAABQ0nIPUi6u05XlZ3TknX0644pQWLH5Qbp6otLEaUOOnmYDlFWzbferWH6IWTbvLVpLylCGc36T4onq1GmzilRq+RD90mLJ5zaxPZarEcvxGBEjMcRuCQzra9+H+oqojp9Mzt8BAACjR85ByowKW2Uu07w6f24Uf/GHIS5bUD8u5kvJ14Hf29yNBaoOz1R/52JVmsrxsbf9/A1/Xpah8ko2a4FtuGhvVnMGk0pmGvgMJtPrLxY7uldjY6Mev80VFMk2r8tSurySoFjuSpuagiNvFZOXx5Luusptryydbe/MYRQtfw6RCRdOdNshRTlnAU2fr/Vezswe3dfY5l3r4lXz8+r2dusTjd7n7FcblrkSAABQbDkHKV17n1XT9vDS6nX9OXOoydsulWGIS9bTv9b7/RFd8ePgSFibdYsdQjgYbHj7SZUNH6ouGBDc2RIY3ctNhDh7sT+Sl2WHIx6gu1cs8KnJZ7LJTK+/KIZvdK9Y9yE70lZ4Jva1DbF5UtK0uNhheIva3atTTQei5rqWJbUW2GuyuRhv5JQs7l5HxaIBWiCKcc5CKdcTdlhkEyhu8a7D5adEFml9zjPoL9PMC/1HE75TryJ/0gAAgFOYeVLi7KzzzJPiGWROkr6kuVPsML4P6IrAF9fJzyf43bnchpUyT4oJEN5co0q35Q0x/EvpBnMdfeGRwYyU+U0C85akPBeQ9fW7exG+Bu/1TM19rpRhmyclxpujI3n0quQ5S9wcKPHbZkfwOqmFsflOvIqz20dDzRfiz5My62TrkJMVxrqZxaXMReKO5baS2WsM522EX0fqEL5DnnOA+Vi8OUsm5zFXyoDzpCSuOTyPTN7zpNz2uBpXVZkHJ/SbhvtVzLHkAACAr8BBSukZsSAFwBhxqx5vvF5V0Q/0s9se1R5XCgAAiifPIYgBYGy79QkToOisPthGgAIAwHAhSAGAdGw3r8ZGXV9pu3n9SI++7coBAEDR0d0LAAAAQEmhJQUAAABASSFIAQAAAFBSCFIAAAAAlBSCFAAAAAAlhSAFAAAAQEkhSAEAAABQUghSAAAAAJQUgpQcTN/0oR5684Tu3rTObG3WLebxQ29+qLpa//lcVG+xx4gds7iKcf1DWX7NSr1274168ZqI2SrXE+bxa/eu1Mbp/vNIxT0DAADjFUFK3trV22/XPepu8QpGmZG4/n6djvrrU91eAYbEPQMAAONHfkHKxXWqX3N7mqVOM9wuY1H3Jz3euu+Trd46LNZSMfDSomq3b8yB9VV65Noq/Xxj+mMW0lDXXwy7/UhIn/Z6Ne3BTZ+vF71WA7fcMV/L3VPZibU+xJYBWiHC57u3RmvdUyMpq3sGAAAwhhSgJeWMjjQ/q6btwaVZXe7ZsW+runvNqr8n/pq7N17uBRz+sl0dpqxv32OBslod8HctAanXX3xRnTptV6d13C+IW9tggoSbKvXRy69o9ZNueeawdrvnM+YFHjWadbI1fpymkxEtvikUqCysMedbZKLE191+r2t/tFz1JRKoJAx8zwAAAMaa8yoqKr50j7NnW1JqLjBByg4dLdEve1evXq09e/aot9fWxEeCzflYo0kmSEnXSmJzUVbNdhtGR2OVXnjabVi1L+nuDQt0bHOzpm5Yo0pTWX1/8+XqvsH9XP9ebf3+zUr0APLPV+m2pGPamVdQdKseb7xeVdEP9LPbHtUeV1oUNmConaj9L7+uTRl0abI5G/dUR3S85RXdd9AVOjbYqZ/cpqeSApyINt6xUotPm8ClsTPNdoxtganRRSZw+eFbmX+wveuZ3WHOGfWCnFmu/GzgON51qVVPfb7Iu3bZIOqdiF40gdIE83y61wIAADDekJMywmLdvB7ZvFd9riydOT+uU+/mx/R+f8Q8/lCrtF2PNB6TJi5QdSzh3QY0LiCKtdrsbJ+jVWm6l2XstoWqsuvIJVp+tVdSJCZg+G65qbS3ZRSg2P2Xz7YJ5dKsuebnkpRrYYUJDto7k1tgFi7SYvsjFRV+K8n0cl1qto8fDQYoNthY5AUYE2aXZ9/NLGKCDxOgyAQbXstMS6cmVK/UEwvd89bkRVp/YZv3nCoW6cVVtuXItuCkey0AAADjTwGClDLNqxs/+SgjI6JJvc1qdontkyb2aOf6Df6GeW7qN/1H1Tcs1aT+vdoRaLE5sN52N5ujmlxHDXvuoE7YdfSP2v22V1IkEzXZBAxnP5c23hHMD7kxuYIfF9Xudr91IhxkaHpEF5lVMJfDGynLBHNNNjAw55ppu3x9bbImmOOc/rO3i8e2dNjWkKYD5mcjk+OtIdlIag052JYafJjX+dE7sWs2G+17EoGZuQm55d8AAACMHfkFKR83h3JRmnQkOkNXrrlBc+031iiYjt/HghIjbf7IZi2YLfX94beBrl+WP3rXpGmBPmVZeV73NzSoodhdvVxgMaF6kbTTtUKY5SkTLMyqTR+o7H7LzyMZvHuU7dJlAg/bcvFkq7a50lR+kv11n5tjPnM4j7yPTh1Muh6XSxIMPqId2h14k0iMBwAASFbg7l6f6eg7R3RGZZpZPsWVYVjUlmuSWU1a8kBoJLEHdMVEf5fR4OyBQKuCsfutPXl0g7KBx0pd2m4Cj6Sck5Cv+Un2totWNjkoAAAAKI7C56REP9MXZlU2kSBlWLV0ejktyaOIBZZ497AS1R3Vp+5h3tyxZtWmBh7Lp9qIzc018ufTOquIFtf6o4kFW2RmXRgxn2VG0gIAABgJhQ9SLp7t5aR0nTzqb2OY5NutayB2dK9GNT73oJa5kuLwJyuccGG42SeWq+LPGRIUm5E9tStYpw6eNKtom5qSul65ZPuTJ/1uX92d+sjGLynJ+gMk3uekkMcaxG2Pq3FY3icAAIDiK2yQElmiFTUmROls1XsfuzIMk61qfuOYNHuN7s41ST6dYRvdK6pN79rRrmqSgo61DXYo3069kdINa7DRvaRt77TpbGSR1l+TSI5a27BSiyOdaop3/Up3TpvDYs5pApwtBej6NfD1F9ayi6b5DyLfVv1t/kMAAIDRKq8gpWz+DYFRvcxSN09ftD6rpr20omTGzmnickc2LPVySiobYrkkOQwb/HStN5SxUvJSPlRdbJjibA3b6F7GwVZvWF6bKB8b2cub6yRtwvsgo3tZ3Yf1w5fbpGq/tcU7VoUJUMLHSjmnCWRkzpnLBJIeOxFkJtdfWHs2v+m/TwAAAGNAfpM5jgIjP5kjxgt/csn+1EBomNz6RKOurzyrD/7lR3q02AElAABAERU+JwXA8LvtcROgSGd/t5UABQAAjHoEKcCo5gY2WFWlEzsb9KPNRZ3NBgAAYFgQpACjmpts0yz3P+eKAAAARjmCFKBA/BnwRyYfBQAAYCwhSAEAAABQUghSAAAAAJQUghQAAAAAJYUgBQAAAEBJIUgBAAAAUFIIUgAAAACUFIKUHEzf9KEeevOE7t60zmxt1i3m8UNvfqi6Wv/50Wed6l41r2HLZredhTtbvHvh/6w7jtm+5U7/6WJZcel/V8vq5sRy3X/TCvccAAAARjeClLy1q7ffrnvU3eIVjGNb1d1r11H1/skrKLJ2/ffX6lRrlzf+q3a5UgAAAIxuBQpS5urKNberPr7UaYZ7Zizq/qTHW/d9stVbDybW6vLQmy2qdmVjyp961GdWfT3t/jYAAACQp7yDlLL5N5igpEZqfVZN22NLs7rc82Ofaz3o70nzmtep+rKI+vbtVYfmaEGRu0CVgq6eqPk/rUoAAADI3XkVFRVfusfZiyzRirp5+sIEKO997MpKzOrVq7Vnzx719nr9kIZX7Uu6e8MCHdt8ubpvOKFV2q5H1m9wTyZUbzHPzXYbQe3B/W2+xwO6YqLbVFTvm+M2B4IB7zj2HDvKzXmXapIr72is0gtPuw0n7TmTzmd41584TrpzZuvWJxp1feVZffAvP9Kjb7vCHNiclP8yr1v//bW79P91ZQAAABgb8mpJmbFgnsqiR3SkRAOUkTb96gWa1H9IB0yl/sDvj0mzF6d0+fKDhWPaeW2VHrFLo9nP6Nv3WCBgsMn5JkDpNUGE22/rPumKDWmS9Wev0UMbpqk1vl9UlQ3B/fzk9lVT92qr2+eRax/T+15eTZA554+lHfF9qrSzPZL+nBm7VQsr7XqCLlmyzCsBAAAAwvIIUqaozH6r3/+ZLlgazEe5XSvmT/F3GddcV68//FbddtPL3Qh3+dqsBbNtQPJrHXAlevrXXsAw6bLvabormr6pTpUygUyglaN74y/MfiZouCE8Ipdt7aiNH6/77UPmvBFN/aYruPMHumKi2eeXN/vXNaANeuH7yfsc2LHXO9acq+2oZrl4Xgc77Pqs/rhvj1cCAAAAhOUVpEyKmFV5jcpPBvJRWrtUtqCeQKX2e5pjgoFjb7vk+pbf6pgJPiq/FQgqassDXalCejtdgOAHO2rfnwhkPC4XZmp5PJjxuJabgVR/a86Q+wyopdNLks/H8/c1qKEhv65eAAAAGNvyH92rszU5H+XjZr3XKZV9Y67KXNF45HX1Skog36oDf4hKs+sS3aVablZruzRpyQ8S3cC8lg6p4/exVpPZmmpbrGw3Lm+UsMSSNo+lgBIjk8WWNfJ6awEAAABFlEeQ8pn67EBOSMO1fmiOVgUq+euW2LJgd6l1mj7VrgP7NcwJJbq7eVhsUnsgPyS+hLpkFYoNUOz12mtJnG+7vN5aAAAAQBHlFaScsZXniVNCLSaJXJUzfsH443X18kfVSgooXIJ6PN8klh+yOXm/5JG4BujWlSNviOCJ05LnsXGtNwkuyOrfq5bQqGD5sqN7NTb+Sg9e7QoAAACAkLy6e3UdOqIzkXn6TiD/pGz+Cs2LnNGRQ0ddyfjjd/U6pkMpFXzX5WviAlXbLl9eMn0gqX0AXsL6xKVatyWcJJ89P5F+jmo2udYcO8xwwzT12YAzzgVGseu07H55d/didC8AAAAMLb+clOg+7Wo+Ii2oT4zsteALvbd9h46O265gAyW6+2KjbXldvlpu1g5viOBEl7D48upLiZYTs9/PbVerNHkpt2Q7QaQ9VuMxTVrygH8Mb7jiy9UamkbmwHrb6mOHHHbn8vbLt7sXo3sBAABgaPlN5jgKjOhkjkMI5n0kdfGKTaIYnlwRcUzmCAAAMHblP7oXcjZjmk2kT9MtrABD/QIAAACjFUHKCPKS2FMmeLSz0Pu5H4lhiAEAAIDxg+5eIyzW5SvZMe28NjFrPFL53b0muC3jzO/0/37jv2qX2wQAAMDoRZACAAAAoKTQ3QsAAABASSFIAQAAAFBSCFKyUFVVpfPPP99tAQAAACgGghQAAAAAJYUgBQAAAEBJIUgBAAAAUFIIUkrJ4jd07uEOb/nLYlcGAAAAjDMEKaXi6y/rP/5xjr76r5U6/+FKfXW/KwcAAADGmTwmc5yrK9fUaIbbShE9ol3N+3TGbY6UQk7maEf36urq0rlz51xJ4XxZ16b/dckh/cPPbtJ5rgwAAAAYj4ow47wfvFxwqEm7Dn/mykbOaAlS/nZLh/59yl6CFAAAAIx7Be/uVTb/cs3QGZ3qHPkABQAAAMDoU+AgZa7mLSiTOj/U0agrAgAAAIAsFDRIibWiHDl01JUAAAAAQHYKGKTQipK7n+pvs6W/++Nb5KMAAABg3CtYkEIrSi5+qr9486Is1lcertTfN2915QAAAMD4VaAghVaU3PyzvmqCk/Mf3q+/mWDlP+rWuXIAAABg/CpIkEIrSr7+WV9pl/56yTUq8HjQAAAAwKhTgCCFVhQAAAAAhZN3kOK3okhdJ2lFAQAAAJC/vIOUM4d3qGn7s3rvY1cAAAAAAHkoUOI88nVeL33lAAAAAIsgpUSc19MjTVqqvy52BQAAAMA4RZBSKvZfp/P/9Zj+8o923pQO/YVgBQAAAOMUQUopsYGKN29Kpb6635UBAAAA4wxBCgAAAICSQpAyQqqqqnT++ee7LQAAAAAxBCkAAAAASgpBCgAAAICSQpACAAAAoKQQpIwpm3XLmyf00JstqjZb0zd9aB6b7S2b/adRZOtU96q9/x+qrtZs3tni3/9XX9J0f4ciKNcT996o1+6t0Vqztfyaleax2W4o958ew9Y2mNd5x3wtd9sjavp8vRh4H4oroo132HOt1Eb7wVpY47/npXIvAAAoAIKUMaz7kx5v3dfT7q2z5wc9d29a57aRlT/1qM+uezvV7RUU3+7efm999nN/XTSuUv7EQrc9RvlB33AEHnn482mdtevTUe32CgAAGP3yD1IiS7Rize2qDywr5k9xT2J4tcuro/b3qMsvSFX7ku72WlvSLKOgxSXeOhRunXCv65Y73faI2KruXrvuUXeLVzAM+m3dVIqe1nG/II1Ya0uahW/fC6P7sH745Cta/WSrtrmi4onq1Gm77tep4Yp+AQAYZvkFKRfXqb5unr5ofVZN293S2qWyBfUEKqXAfZPf98lWf9tquVk/v7ZKj5hl6z5buz2mnW77kfUb/H1KXtS8rqWqHdGAJAMtnf79z7klKwfuW/VPe+17G9Op+7wKtFnMNdn7t/9lt/3MYb59H+26o/rUrIreegYAwDA6r6Ki4kv3OGszlt6uKyce0a7mfTrjyqQpmltXr3n9rWrae9SVjZzVq1drz5496u31vuLOi53bpKurS+fOnXMluSvksXJlWyXWLekxQUqtDrgyyy+PuK1Uffse0883BgIfm3vRMMdtGO3bAwGPzdN4QHP+8Jhapz2gVbPdz3/yA/czUb2/+XI1Z9jy4F+b9P6+Hl0xbX/iPLYlZcNS9TVW6YWn/aJY2SS3mXIu77qlnZt7VOPtZwO2X2u6ud4rJprnk15H6n1JuQ9ZWrbhV/rJdyboxM4G3f+cKyw2m79QO9EEKa9rU+hbeNu16Z7ZHXrqmajq763RLFd+9sDr+uFbftBj80DqK7yHaR1veUX3HbSPbOtNjS6yP9u7yJwzkSOT2CfG3zd2Pj+IGuD6qkOfy2ibuV4XaNkuaDct0qeh43vXPDmwnxM+XuJ1hq8nrFNNsRYTd84JXrkRvJ6w8L7B41je85X6yLz2U1cF7vNgxwQAYIwqQHevSbrAPfRN0STzd/9M/2duG6NN98bL/ZaVa7erw2zbyri/7S/BirnX/aphmqn8x543PzN7TWrXscvuUk3PY17rzSTz+G4bHHjHj2jO1TnkvLy935ynzk9QT2uzbvmxtCNw3TvbI7pig0tqj5ummh9PU6t3LXNU8+pdXkDltTLNXuwNQGBVbznhAjp3vM17pSUP5JGvs0zLL/Grq1ULbvXWJSGySPfcu0inYy0tLZ2aUL0ynnuyrdGVv9zmtdjYgMPbdkty8CHvZ18z97vJPf/Ugahm1bqEb8tL+vaDmdgxnjIR8+KbkvNdbKBxT3V//Dh2aTrpnsyan3h+j3lz4y1KZtmiRe66Ei1P9nr9YCKxX1KXrng3r8Gvx8ttcQFU7DhNJ8tNMBi4F56I99qv+zx2P1p13L4n42AgBAAAgvIKUrr2tqpLM3Tlmhs01/tCcq55XKMZ0SP63WGClLFvs2qXREwQ84tAS8gGvdB4zFTwkwOISRN71BoLbiaan2lMtN5MmjbbPcrGBrXs0yABjrmO79+clLB+YMde9aUEReaD+4dfJ65Fh7QjHoRN03T7GmpfUo25xI7ANdtucztswLXkB/FAJjt7tPuPXrqzThx63luXiuMtgVaMgye9XJeLpoZaMDJlWwEClfrdRzpMcBPR5K/ZLRMsfNdUvk+2xltqrN1v7dF+sznruy5fZvp8XVdhr6tA+R4LF2lxJLW1ZvdbrSmtN4VhgpHqiNdSEwzitjWaAMQGJVeFApCk+9Fp3wJpcoTcIQDAuJJnS8pRvbf9Wb3XWaZ5dTZp3gQona1qSur+hTHrzsWqVFTH3g51efJyYSKa+k23bbXvD3Qpi6r3T+5hHro3NqsvmyDB5YgkC11/mpG4pl+9wOsKdijWjczxR09zgUwO9mz+kRoahrGrV0ZMpTjUGpKX8IhTruXBq6xPL9elJvZJzaUwP9NuKumRyV6Xq+XzKjWhgNe1dq4JCqId2l2UgCSNhRXe60jOE7LSByDHj9q8IQAAxrc8gxTbcnK7rizv8oKVpuYjOlNeY4KVWMsKxrLpX59m/m+7UIVGCUvKAymmDTrUPkc1A3S58rqiBa/rzTUmqMrejGn2wzxHq5KOZZZgHg5yllp5j5momUldoQohopmTzWrYh+uN6vSf3cMwF4wBAICEPIIUmyBfoxmyAUqzP+RtdJ92bbddwMo076ol5v8Yy/yWBJuMnsj7CC7xBPYisl24dNn3UiZLjCW5dzQGr8nPsclWV4+tRAdGQUtaMk/6R7aKMcSuG763lLpPDTp8NAAA41NeQYpNkFe0T1/4Bc5n6rN1upSEeow+/rwrA+aMpOvWNdxafmvChwWqTrqGdaq+zHw4+/eqpQCBUr7dugZiR/dqbGzU47e5gtHEDXubc66K1d2pj8zvilm2+1USE0DMNsc9edLLQfEnqAy1qrg8laGV295WSY5/bk4aqdTyDFpp0p47W15eT0SXzgvfK//azrZ3FrVV59YnGr3P2a82LHMlAACUvjyClKPqtF2nI/M072K/xHPxlfL+Fne2DzyhIEYJNznhQKNotdys1napsiE8YtZw2qrmN3p0xXUL3LblrnuiCV5i1+VN9phbdy89/Wu932+7tbXkmCSfTomO7pUxfxLJCdWL8piNPapN75pfIhU1SSN5Lb9mmZ/Y/o7LzXCV/ESCebmeuGmR+XH7bUiAC5wSQU/6oYR3v9XmH++m5Jnkl19TExppy/DmnUmT3J6VTjUdiJp7tSzp+Gsb7LV16o3AoAGFt0wzL/QfTfhOvUbjJw0AMD7llZPStdcmzUszagIzztfM0JlDTSUxRwrScDOz25wKf86PQK5FmhnnD6x/zFXQ3T5mCQ67e2C9nRRSqXkp4Rnhi+np/eqYGEnKg0m57g2xYYZzYQKh79shjNPkpeQ8S/9wju5lK+tuhnlvvhJ/mNv8Zpw3AcYzdnQqO4yuO5ZZgsFGRg62esMcz6pNHMMfajg48lan7rNDHptgxt/HHyJ5S8ocmeH9akwgHRtGOMgOMfy69keTr3292lJH97KJ/nYCzPgx/ePGghtvaGFX7s1r4g3h7G+/eE2i5WT3W6/Hh1aO72/nbgkOZ1wUe/To7hPuMQAAo0dekzmOBkzmCGB8u1WPN16vqugH+tltj5qwBQCA0pfn6F4AgFJ26xMmQNFZfbCNAAUAMHoQpADAWHTb417C/PWVJ/Sbhh/p0bddOQAAowBBCgCMRc/d700W2tBwv4qd9QQAQKERpAAAAAAoKQQpAAAAAEoKQQoAAACAkkKQAgAAAKCkEKQAAAAAKCkEKQAAAABKCkEKAAAAgJJCkDKmbNYtb57QQ2+2qNpsTd/0oXlstrds9p8ucf71+tc+fEbgni2s0Wv33qjXGsrNRkQb7zCPzfYTC/2nka8h7mns/scW733IVexcK7VxutmMHfuO+Vru7wAAAHJAkDKGdX/S4637etq9NYY2/PcsqlOn/fXpP3sFKLaDrVr95CtmeV37o66sUP58Wmft+nRUu70CAACQi/yDlMgSrVhzu+pjS90SlbmnMNza1dtvVv096vILBrBOda/a1oPEcvemde658SbTe1ZAriJ79nN74oEkWgOSlxqtdXuMKfHWDdcikZeoNj1jg5BXdN9BV1Q0sSCzX6e6vQIAAFAA+QUpF9eZoGSevmh9Vk3b/eW9/nkmaKnTDLcLRtCfetRnVn2fbPW3PbZ70wO6Qnu19doqPeKWHbpLt9zpdhnP0t6z4jr+uf06P1zJTVS0Y8tTBwr9tX/pWDu3XDrZpv3RiC6dF3Glo1B3VJ+a1eABKAAAGMp5FRUVX7rHWZqrK9fU6IJDTdp1+DNXZtiWFRO4KFw+QlavXq09e/aot7fXleSuqqpKXV1dOnfunCvJXSGPlQ2bc7FuifT+5svV3OIK0/D2u+yQtn6/U7VvrlGlK+/b95h+vjFUgb+zRQ81zHEbRvt2PbJ+g9uIsa03Jjia6DaN8LH8a+vRzmtrdcCVVW85oVWzzYN+E1R9/2bF6/FDndN7fpr3OrtvcMfwHEs6frZufaJR11ee1Qf/8iM9+rYrHCbLr1mpe6r71fRkq7a5Ms/0+XrxpkWa4DalzsA+tkVmpRZHgmWO+zkdeF0/fCsQANlWjdpAnsbJVq1u7HQbMeV64t4azXJbyefMln8stbyipqnmNc7u0FPPHI53l1rbcKPqK9Id311D/Ppir9V/1gZ6+19+XZsGbOFw+59O9/p8/rndhpX2XgAAgELLvSUlMkUXmNUXfaFAJHpUp0x9p2ziFFeA0hPR1G+6h4OZuFTrTICiRtfi0nhMk5Y8kNTi4iWae8FArFVmuzpmr0lJPK/ecpf0y9g+iWMN1s0sFqB02PMHApRMz2lf5xUbzDFkAhhvv8f0fv8crXr1JeXWo+hWLfSitQm6ZMkyr2Sk2cDlNRNofGoq+LEWl6aT5aqPd5uKatO7tlJdroWhJPLl8yrNK4nqoyOJAMVWym2AcjxwvNVHK5IT0G1wY4KDi0xwk3zOHLuiLawwwU6nDh6Udh/p0NlIpZYH3qBtR9Nfv/9zJhB5JxY0BFqfWvIPJOy9XXjUHc8uL7fpbIUJ4PJKtAcAAJnIPUiJfqYvzOqCSQMEIyZIITel9HRvbFaHWVc2JEa0GowNEF542m08/WtTyTc/+61YMLBZtUsi6tv3i0CrzAa9YAIQza5TXa0rMg6sD7XcuGNNuux7aQMGG4jEApT4+T2Zn9OyrTWJFpatOvAHUyGfOC3H7ojP66C9eTqrP+7b45WMLBMYVEd01gQLwdyLbY2tOm4CtMVXucr0wZNmW5plu1TFRbR8dsTrYhVvaTDBx3UV8gKUpFyOg61J22uvWqQJ0TZtCbS++Ocs13XXZN9Vy+/qddJvJfG6S4W6fKW9fvdz0Q7tHrClJD+730q+r+o+rDdOmnVFxdjMCwIAoITkkZNyVJ2dUtmCFZobqE+UzV+h0dylfOwzFfprq7R1n61gztEqlzifPh/lmA4lBQhb1W17zU0t9wOLOxerUlEdezvU/cvL6xiqtcYdKw2/21ckTYBiZHnOcG5J98bL9Uge3b2ev69BDQ3D39UrLa8lQfq0NxEs+DptvV6abAKR4Hawcj29XJeaf6fHvVYKn9+y4rdoDKzcnlZn2ztDo1f12wGtNOHCQH++jPjHS1yHf60TZpcHhvDtVJPNx0kKDga6juLy84cAAECx5ZU437X3Wb3XWaZ5dYnRvb6jD+X1Hun/TGf83VCC/Mq66ypltr2WlSznBpn+9Wnm/36XquBIYQ9tWKpJ/i4JtS/p7uA+ZknkiQTN0RUmQLFdd3r/5JcEZXXOcWGQoYsjk+M5I9veadNZW7F3Xaa8gCTapqZAQDLrQnPfo6e9VosBTY/oIrOaUL0yMOKYPypXIhckC67LVvA1eN27IotUH+je5XUDC1y//3OdeiOYS1NwNucl+Bpv1D3VfAMDAMBwyG90L8MGKrGRveyy67A0yfwdP2OCFIwGfsvKTjstSJruUoPx5xSJBnJDkpd4K4gNUGwQYZPbA89750xhE9tt7ogNRD5MuZ6Mz4nkgKO7Ux+Z+rzfZcrv6hVuhfBaCQKBTVqx0asC+ShJS5ZJ5V6XLXM9i28KBAMuaT+pe1fS9Ye6iBWFS8o3gdxTgdc3lkdYAwCglOQdpKS4eLZmqEtHSmBkLxTaZi2YLfX94bd+EntG3bqk6Vcv0CQbWOwIj/g1kK1q/r5t4bGBSihvJsNzFosd3aux8Vd68GpXMIxSWjq8XI10Q/am6wrlEuhtlymvq1dywry125swJtBakVau3brScdeZJuBpSsn9CFy/+7lgV7WC81pqzDneTYwyVhC3PW4+P+Yz9NyDKo2hFwAAKE0FDVJmLL1d9TUX6Ehz8/BNjIesVG9JbZ2wLR01tutVe/OgwxJXb7FDER9Ta2zY4Jab1dpuu4qlOWaA3/oR0ZyrYyN5+ZNJpu/uFbNBL2zeawKS0GhcGZ6zOIZzdK9yPREcRcoltScHHn6uxoTqZUkTIK5tsEMDp+kK5QU15aq3wxUHE+ZjDtp5SkwwVBuaUHFhTWB0r1iwUKMXc0iST+IFAqnBkpV2RC93/QsbzM+FuqoVnJtwM9iaY0c+y7e717KLbHdFI/Jt1d/mPwQAAKnymCfFJsnfoBULAmN4dbaqae9Rt1EamCclLHW+EiucpB5LXk8SnqvEyWTf8D72fIe+ZQKVqYn9/H2S50lJzIeSPL/JkOd0P5c2+T4PwzpPSmi+EtvikDSfiePPnxK4F7aLUmCekaDYvB8pI3gFZDQ3SMrcLNZQ85Ik884zeaBrDc+B4otdW9p7kfaanMA9SXl9AUn3Jc3936Jl6eeqyditerzxelWZRyd2Nuj+5/xSAACQLK8gZTQgSMlN2oABo55fQc9n4kXkayQnBAUAYLQofE4KgBIVywFpI0AZKbc9bgIU8x78bisBCgAAgyBIAcaFiDbe4Y9WFZyEEcPFdvNqVOOqKq+b1482l8JkoAAAlC6CFGBMi831sVKLNXCuCorted3fYCcCJQ8FAIBMkJOShfGUkwIAAACMFFpSAAAAAJQUghQAAAAAJYUgBQAAAEBJIUgBAAAAUFIIUgAAAACUFIIUAAAAACWFIGVM2axb3jyhh95sUbXZmr7pQ/PYbG/Z7D89xlRvsa/1hO7etM6VFE/sXvrnit3nD1VX6z9fDMuvWanX7r1RL14TMVuJ+U42TvefHx3sJJL2um/UEwtdUS4W1njHeK2h3GwU6JgAAKBkEaSMYd2f9Hjrvp52bz0q1L6ku00AcMudbrsktau336571N3iFQyDfp32Jorv16lur2Aci+rUaX99+s9eAQAAGGOGCFKmaG7d7apfc7tWzJ/iykIiS7TCPG/38Zc6zXBPYbi5ynN/j7r8ghSx1ofkpbgtAsVyYH2VHrm2Sj/fuNWVFE884Puk+OeK2e1HQvq014tOBhdrabi3RmtdUVisZSa+eK0SxRbVpmde0eonX9F9B11RLv58WmfN6uzn/j0BAABj24BBStn8G0zAsUJqO6IzrizFxXWqr5snHWpS0/ZnzdKkI9EZupJApTT8qUd9ZpVSse7fq62mcm8r+HbZuk+6YsPwdJsaG7aqu9esBgkGC8+1HkRP67hf4LhuYHNPqumkK0pjbcONuqda2v+yHzCsfrlNZytMYDMsgUrhHf/cBm60KgEAMFadV1FR8aV7nGCDj0V92tW8T2dsS4kLRHYd/sztYNlWlnrN629V096jrsyaa4KUGl2Qsv/IWL16tfbs2aPeXlurzE9VVZW6urp07tw5V5K7Qh4rG7YlZdVUE6R8/2YF63de+eyo3t98uZpb/ByMdUt6tPPaWh1w+/i5GGs0ad9jrvVinepefUBX9G7XIzvKdfeGpZrk76i++D4xbt+JbtMI7uOf33uYVkdjlV542n8c3jf4XDL/eivdlq3ox15fjHcspV7/wMfMxK16vPF6VUU/0M9ue1R7XGnh2dyMlZr8rt9KYQOR+opONT3Zqm1uD8/0+XrxpkX6tCXUmmFbX2onmsDldW3KtLLv/YzU9PJpXWeOOUH2fG2aaa5jsU2dOdmq1Y2d5oF/bV6ZJ5r2PLZ1557ZHXrqmajq763RLFd+9sDr+uFbGbQgAQCAMSl9S8rHzWqyAYrbTCsyVzNNBaTrZDBAsS0wl3utKGXfmKsyvwijwIEde9VnKpZzrs6hNWX2Gj20YYGObXatM43HNGnJA0l5JdVb7pJ+mWi9ie0Ta72Jdd16ZLO9Dj9IiO9rlmDAEN43rTtb9JALqGLHiLUYpeS7eNc/Ta3x/aKqbMijC9xtC1Vl15FLtPxqr6RI/K5UQ3WjWj6v0gsmDibtZ4KI7/pJ6JfOi0cSGZqo61ZN1hsmGDqucl13xzJd2v66njpggoqKCtfdLNHNa3WLDVoGEVmke+5dpNOxVh6z/4TqlSTFAwAwjuWeOF82yQQhZ9QXiGRmLL1dK75xSu8dMoWRSbrAlWP0mDRtkOaMAR3TzmsDLRRP71eHWU36eiLgObA+uQVDT/9a7/ebfS77ngo/WNU61V03R2rfntSa073xF945K697KXRO28KSaDHqfvuQF7BN/aYryNZzB3XCrqN/1O63vZIRNetCE4QkdROzXcRWmsCiVftNXDHhwkDzVkbM8drb4q01E8y7vSXe6jFRM3N4Q4+3BFpZDp70rvWiqdkGTwAAYKwo0OhetovX7ZrX3+S1wHzhSjGKtHQO3CoxlJTcjA164dqhEtpdXkcx1H5Pc0y9O3VUs6068AdTmZ44LTlnqv+QDhR0lK7ndX9DgxqK2tUrR16Cvd9q8cO3ck1Cj+qjI4GuWKej2u0e5ibcygMAAMa7/IOUMju6V43U+mxJ5KAgR7Xl8XyMonBDCwdHFRssB6UQBh6Ja5qmj8LRzPI1y47uZfNJnswiBwUAAGAE5B6knOnTGZVpXs1MnWp+Vu997MqNCyaWSdE+WlRGk29O84KUjt9v8LcLyQYoNim9fXs8P8QuO0ds+pbhnN9k5HkjYUUWqd4mqCcl1U/U5AjD+gIAgNKTe5ASPapTtsdH54c6Guj5Ybt+lZebGObfjg6eeI8S4nI4dEyHBhvR6s7FgZGyMjf96gUmAIrq/R0ZBECu21kwnyVrLb/VMZt78q3wTPvrVH2ZzafYHxixrBjs6F6NanzuQS1zJSNp95EOb46R4+8eTu6WtbBCs8JdtwAAAEpAHt29PtPRti6pvEZXXuyKvGGJazQjekS/o+vXKJEYGrijMZA87k1eOEcLYiNh2dGyGmwgkz3/WMGRw+w5B+ru5U9IOWnJD1TtSrK3Vc1vHPNG7QqO5DV9013mdWYYLOVj2Eb3ylD3Yb1xUppVG5jo0Q5LXFuuswf20PULAACUnPTzpLi5UdIPIXxGR5p3JFpP7JwqNYE0ZBOgePOruM2RxjwpydLOR2K7Ya1Prbj7c6XERliyI3j9WtNNQDPnD6F5UpQ670pY8rH8IYYPfctcS5o5W1LnNwnOW5L6XIK9xsC8LimBVeh5w7sf4Wtw3dP6cp4rZbjmSYnNjeI2wuJzlvjC++Y0F0nS3Cp2lLAazXLn8eY88SaMNM/Jn5tlgvuxJNE2PfWM36rj/0x/aG4X/7gXMVcKAADjVvogZQwhSAEAAABGlwINQQwAAAAAhUGQAgAAAKCkEKQAAAAAKCkEKQAAAABKCkEKAAAAgJJCkAIAAACgpBCkjJATJ04w/DAAAACQBkEKAAAAgJJCkAIAAACgpBCkAAAAACgpBCkj7Mu6Np17uMMsbfrr110hAAAAMI4RpIyw85oX6fyHK/UP70r/sZ5ABQAAABgiSJmiuXW3q37N7Voxf4orS+PiOm+f+jV1muGKkJ3zmpv1VUX0JTcQAAAA49yAQUrZ/BtM0LFCajuiM64s1VxdaYOTina91+mKkJcvp61zjwAAAIDxKX2QcnGdVnzjlHZt36GjA0YotpWlRmp9Vk17j7oyAAAAAMhP+iDl42Y1Ne8bpAXF+kxHm5/Vex+7TQAAAAAoABLnS8YxndfnHgIAAADjGEFKydiq8z6T/vrdNfqbKwEAAADGI4KUEvKVFyp1/pYe/dWbN+UNghUAAACMSwQpJeRvt5jg5AfSVx82wcrD1/HmAAAAYFyiHlwyfqq/zZb+7o9v6TxXkmqZHnyuUY2NjXr8NlcEAAAAjDEEKaPKLE2O+I+qlj9oQhYAAABg7EkfpESWaIU3g7xZ6uapzBSVLah3s8rfoLmuojxjqdvHLFeWeyX+5I52WTrX2weF9LyafnfWPQYAAADGpvMqKiq+dI/HpNWrV2vPnj3q7e11JbmrqqpSV1eXzp0750oK6af6y8Nr9OW7j+rvm7e6sjSuflC/+qdva0LHb9Rw3/OuEAAAABg76O41qizTg2tNgKIT+g0BCgAAAMYogpQS8WVdnf6iqL7yYfpWlGUbfqXGxp/o2/pAP2u4X4QoAAAAGKvo7pWFYnT3+rKuTf/ru36Sz1f/tVJf3e89BAAAAMYtWlJG2HnNi3S+Ny8KAQoAAABgEaQAAAAAKCkEKQAAAABKCkEKAAAAgJJCkAIAAACgpBCkAAAAACgpBCmlZPEbOvdwh7f8ZbErAwAAAMYZgpRS8fWX9R//OMebK4XhiAEAADCeDRGkTNHcuttVv+Z2rZg/xZUlm7HUfz6+LJ3rnkE2vrx8gf7at1d/R3ACAACAcW7AIKVs/g0m6FghtR3RGVcWZgOUK9Wqpu3P+kuz2be8hkAlB19O9WedBwAAAMa79EHKxXVa8Y1T2rV9h44OFKEYXXtNYLL3qNsyovt0pNOsy2drhl8CAAAAAFlJH6R83Kym5n0DtqAAAAAAQLEUOHF+isommlW0T1/4BQAAAACQlYIGKWXzV2heRDrzb0dphcnKT/W32dLf/fEtnedKAAAAgPGqYEGKTbRfsaBM6mzVrsOfuVIM7qf6izcvymJ95eFK/X3zVlcOAAAAjF+FCVJsor0NUKJHtCuYSI8h/LO+aoKT8x/er7+ZYOU/6ta5cgAAAGD8yj9IMQFKfc0MP0Ah2T5H/6yvtEt/veQafelKAAAAgPEqvyCFAAUAAABAgZ1XUVGR+uV9ZIlW1M1TmdtMdkZHmnfoaNTORl/vJcqn1dmaPIfKCFm9erX27Nmj3t5eV5K7qqoqdXV16dy5c66kcP52S4f+fcpe/cPPbiJ5HgAAAONa+iBlDCFIAQAAAEaXgg5BjNyd1xt1jwAAAIDxjSClRJzX0yNNWqq/LnYFAAAAwDhFkFIq9l+n8//1mP7yj3belA79hWAFAAAA4xRBSimxgYo3b0qlvrrflQEAAADjDEEKAAAAgJJCkAIAAACgpBCkjBA7nPH555/vtgAAAADEEKQAAAAAKCkEKQAAAABKCkEKAAAAgJJCkDKmbNYtb57QQ2+2qNpsTd/0oXlstrds9p9Gka1T3av2/n+oulqzeWeLf/9ffUnT/R2KoFxP3HujXru3RmvN1vJrVprHZruh3H+6CNY2mOPfMV/L3fZY571ec09fvCbiSjCsFtb4n+lS+8xNn68XA//2xqxSvf8jIqKNd/i/D55Y6IpQ2ty/07H1fg3/3/2RQpAyhnV/0uOt+3ravXX2/KDn7k3r3Day8qce9dl1b6e6vYLi293b763Pfu6vgdLk/5EtxcDP/4M/xgMPjBL8OxlLinXPxvLf/SGClCmaW3e76tfcrhXzp7iyhLL5N3jPJS1L57pnMfza5X1W+3vU5Rekqn1Jd3utLWmWUdDiEm8dCrdOuNd1y51ue0RsVXevXfeou8UrGAb9Oh01q+hpHfcLBhH79iWxjMnWgfg33Ikln2/RtjW+otVPvqIfvmVv9MiLf2uWZhmT3+4ebPXu/+pnDmu3KyoJ3Yf1Q3tdT7ZqmysaSQNWgPL9Jrkk73+iRSO2DM/vsqg2PeP/PrjvoCvCmBRrQU9eVmpj8bpFZCGbv/uj24BBih+ArJDajuiMKws7c3iHmrY/m1iazb7lNQQqpcJ9k9/3yVZ/22q5WT+/tkqPmGXrPvspP6adbvuR9Rv8fUpe1Lyupaod0YAkAy2d/v3PuSUrB38+rbNm9WlvqELtddmo0ayTrsLhli1aVCK/dAvDq6jdtEg68HrS6zw4d+x847f7rdhre1377dsceE+pOGHss1+2rNRitekp97m3yxYtowsWCiua/Bl76oC0+KYS/HJvoL/7Y8B5FRUVX7rHCRfXqX5Rn3Y179OZyBKtqJsnHWrSrsOfuR0GNmPp7bpy4hH/Z13ZSFq9erX27Nmj3l7vK+682LlNurq6dO7cOVeSu0IeK1e2VWLdkh4TpNTK/NuL88sH/kfYt+8x/XxjIPCxuRcNc9yG0b49EPDYPI0HNOcPj6l12gNaNdv9/Cc/cD8T1fubL1dzhi0P/rVJ7+/r0RXT9ifOY1tSNixVX2OVXnjaL4qVTXKbKefyrlvaublHNd5+NmD7taab671ionk+6XWk3peU+5ClZRt+pZ98Z4JO7GzQ/c+5wqKwf9RdgNLY6cpCbBBTW66zpnIfbjGw3yjVV3SqyX1j7G1PNr+8d0rrTUAwwd9Nx1tSK8k2aLinOnHPUo7vnXei9r/8uk5dZc/jypU4X8bsN8YuQBms1cO/pn5z/DbNvMNUdmKXZ/8gBb4t9l+32zBSXp93vkp99HKbJt9k7q/5fCW9jtDx4u+D28rpNSax3yab6z+d7n31zyVzzU1Tg+9B8Jzu521lL/wtedp7mdn1h99zL4hy15fyXEjS58N9JuMG/Py615HmsEnHc68p9nm1vw/s+7XJ64sZfm1hgdcaPk7K+xyQcs7QPYt/hkKf/8GOOYDE5zr0nrhr+DT0+Q1/vtP/2xzq/mfyOXNS7kVM8H0Ymv86leHPhD8byefy7oFa9dTni/xrt6/xnUj8OhP/5gc/Ti4K9e8k8b4P8vtssM+A/V0e/qwN+N5n/+9kqHNmdP0xWXwmw9eY7u/TYAa6N/6/m9D7n/LZzvF3iyf191nKv81xJH1LysfNaiqRIAPDr3vj5X7LyrXb1WG2bWXc3/aXYMXc637VMM1U/mPPm5+ZvSa169hld6mm5zGv9WaSeXy3DQ6840c05+occl7e3m/OU+cnqKe1Wbf8WNoRuO6d7RFdscEltcdNU82Pp6nVu5Y5qnn1Li+g8lqZZi/2BiCwqreccAGdO97mvdKSB/LI11mm5Zf4v9KqFtzqrYtmYYX3C/L40XQVPOdgm/et/ITZ5aHk2HL74+aPwcnkCocqTYBiK1exb5iimlWb3BRuf5n7f3zcN1GmMq/qlWm+hYp4307ZyoL/jZVtIShXfZaJusvnVZo/ElF9dCSTX+bm+Peu1KXtsVaJVh2PmIpKIPEw1s3LXrf9lmogl65apNPmD9L+aMQ8Xum/jhZzryOVWh67H/aPmPlDdZH5Y+Ofz1TqTtprKG4Lz6xa8x5c2ObOGb6vUe1uN/cqeJ2Ofy879Uawgp/B9ScqkO7emcVWAGPfcCdagcz9Ntv2j29sP7sk/SGOdTOKtRilFQi03DHsZ9GylZLE8UxFYZW0xe1jl6aT9nMX+8x26r6kn7cVh8S+SV264t287DFcWRr2XthWPVtJix3Hv2fhLiP+5/+6zwf+LBaaX9FKfo1vXLgs+boyuv++wT9nhqvEJVo4Y8e015BLZT+iyV9zDwdkK4fms2GDePca/W/CQ/d/8iKtt9du/81WLNKLq/yg0V7frLmx9yDRzcvbL08F/Xfi8T9Xg/0+y5T9bNhAwP77iZ/zaIW7tiz+nWRl6Ov3/j15X2glznW8wgQtwdeY5vfUUL+/s7XtHXs887t+XuzvWAF/txhrG5aZylHgefN5m5D27+b4UNjE+YvrdKX5vHS1EeCMD5tVuyRigphfBFpCNuiFxmOmgp8cQEya2KPWWHAz0fxMY6L1ZtK02e5RNjaoZZ8GCXDMdXz/5qSE9QM79qrP/HJJ/hnzD/8Pv05ciw5pRzwIm6bp9jXUvqQac4kdgWu23eZ22IBryQ/igUx29mj3H/1fnScOPe+ti2Wt94e2UwcH/RZpgAqrF+BEtf+d0B9mc9vsH/JY5WL3W23mj6n5xXyV+4Nh/lhcZ4Kb4y3Jlbst5pf0hOpFKRVz749w/Bux2LVMHuTbp7CIls82FxXt0O4MKzzJlVhzf2yFc7I5jl+QoYgmnG6L34cJEROUxV9HoiK19qpFmhBt05ZA5WJbo62AlOu6Yv7xsd9GDnJfdx/pCP3Btdy9DASmmV7/rAtT3wNb4crmG8ysTC/XpeaUx99NfNvpfxaDFUzLVBRC34imVjYKyVS6qiPe5zr42v17Fvh3EnOytQCfxUxFNHOyWYW+eNjWmEfLwBCfs5Sg1+yz6V27f7kWZtlFK/7+msBosCTk5dcsMuc3FcLAN+2739pjgo/Q/Tdv/0fx329mo31P4j4U6T0oxr+Tgvw+i//eDrU6mIC1aP+GncGvP/bvKfDemH3uc4FlLOhM93uqWCZcaLtbWIX93ZLy73DALxDHh/yDFNs1LJY0XzNDZw416b2P3XMY2+5crErzx+bY26EuT14uTERTv+m2rfb9gS5lUfX+yT3MQ/fGZvVlEySYX2jeaFtJQtefZiSu6Vcv8LqCHYp1I3P80dNcIJODPZt/pIaGYnf1yly6CqsX4KSr+KeUuUQ+90clVikJB0b+KCQTNTMYCBnhvrT+N4m5fiuXiahO/9k9dLyWk3D3ggwktVClTWT0W6POtneGju3fs8Qfu8JLPWeICRzfMJWBpD+AsYp//HVlfv3HPzcF9hvQ4Rqu9muTA10skg050k13VJ+6hwXnWi9T+4inrzwO2spZcFGdOm1W4W+h8zDU58yrlKeV+u9waP430/630vYbeD+pOTkfxdzfUKDtc689eP9Dv8uGo19/4f+dFOb32UC/t4tviOt3X5altJJ7uRixL4MG+j1VYJn83ijo7xb3mR2n8g9SbNewePJ8k059o94ELHWa4Z7G2DX969PM/20XqtAoYUl5IMW0QYfa56hmgC5XXle04HW9ucYEVdmbMc3+gZ2jVUnHMkswD2csSKmw+r/0g99SDyz5F6lfKUlUIOJLsD/xeDE9oovMyjbZJ90L2xVloLrbMNpmK8iBFjSvohJtU1OsopLF9XvBpf1201bAYvsVsdtS7FvGWd9NVPb8b9BTKzRed5Gk6x+sn3ghDFIBz6qVsPBsBdCr5NtAxd2PYnYn8b9ZDra6RbTxuwN8AZKhcJcor2Ul/lmbaOOQpNcXW4J5OIVnux8mn88u4YT+Yf93kiG/haf0RoxaPtV+EeJ3i0y6t0l5IMPE/T4MKujvFq/LWvBYxf7MlrbCdvfSZzr6jh0NbIbKL3ZFGLP8lgSbjJ7I+wgu8QT2IrJduHTZ91ImS4wluXc0Bq/Jz7HJVlePrewERkFLWjJP+h8p3rd2NuDIoFtFUoXV+/Yq02/VXBeS01EvoPHPGe57G1vy6FYyIBckpcmvGHHuW7Vwv/L4EuiOMiIOnvS6IPktaP430EnfRmZ7/fFcBpezUcBv7FO5ymigspcuqdrPAYh4XUoS1+5XbkdECVQEE5V8P/+iqP3eXYtXItB1eUQ5tFym8ltW/M9arOuPa9m1idXx9zuwFOS86QRyVwJL2q5Sw/rvJDN+C8/IBtDp+C3wNhk99d7apdhd0ZK4z3Ks9bOgv1tc7taE0Od2sNy3sa7AQQrGFn/elQFzRtJ16xpuLb814cMCVSddwzpVX2b+2PbvVUsBAqV8u3UNxI7u1djYqMdvcwVF4nfjUqiP/gC8b6b9CqvX1Sulu8QAXBehWBebgbp1FZMXYMUr26Wk+N268mOCSZsrZFvQvPcx3AqR+/Xbb+y9P7Ch7k2FuifxvIPAH/TUINh1/Qm2Dg2iIJ/dpMAvqNhdUtJct1epGqxbla1Yu0ClKJ9R12oSDhiKFihYabp1lbBi/ztJz/8sBvmf/cy+0Mrt30nqOTOS1K1rIOnvlZen4h7nz32W41/eFfZ3i9/dLk0OaJ5ufaLRq2v8asMyVzJ6FDhImasr6+apLHpER8hLGQPc5IQDjaLVcrNa26XKhvCIWcNpq5rf6NEV1y1w25a77okmeIldlzfZY27dvfT0r/V+v+3W1pJjknw6wzi6l0tYT/dN3fJrapJHujG/IG3Sq/3G0xtmMaNfluYX96pQwqILdhbfNIzzkxxs9f7Qp/tGeG3DSM6T4pKEzf0vZpeafHiBbKRS9VeZP5InEwMB+DK9ftvVJXyfXaXE1B6SK6SuEhlIes1FZhWlNK1sbhSgtN8YuwpRSnJ7VlzgV508Ypb9HNqgKpFAXjgpg1d4yvWE7WKZ9J6asnAuROhLhsIqbMCwtiE8OprhEr6Dr9PrYmZb2EqgG1Wy4f93EmsNTXxRZUc+S/P5j3WfDI3UaIf+DXdZG/LfSabnzITripxyXUncgA2Be2VbOeonR70v6fJn3ze/i2tiQJjC/m7xf58Fv9yw58y3u9cyzbzQfzThO/Uqcm2j4NLPk+LmRilzm8nO6EjzDh01nwVvTpTQve5qfbakEueZJyUkZe6QgNC8ID5/nhNv3hAnPD9IeP4QT/9ebf2+HV3L/Xyvf2x/X7n5SjbrFhs4pD1vesk/7wrtcMMuALHdu/xuZuHrtt219muB2W9S7Pq9eVLs8Mmp15LuPHYYYjvPS5Isrj1s+OZJcWJNyW7Tsl14UoazjO1ngo603THCY9VbacertxWKNL9gg/u6Y6WMJpOPNNcXPL7fPD/UPAuD/UG139ybP1LuPvnzALg/YLEuLOleV5r7b//IZTvfQqx7QTqJ8/nXb4fiDL6//s+mmUsj6Q/wAO9FRtefet/SfsY8iXPGBPdN+9lxgtc44H5Jn8nwuex7eFIL09wjT8pnyL3n5tFg9z/8WlP2Df+bSvoMuTLDe03p5q8YUob3P817GX7fM7v/mX7OBv73NODnbUCpnxsr/XHSnze2b9J9Tvo3G/r3nPaz7wz0e3JQhft34t/rDOaNCb0G+zq9uW1md6Rcf8p7P8Dv98H+nXgyOGfG12+k/bcXuv9J1+5dt7x7befyyeZzlvbzn/Y+FO53ixV+jfaeHZwb+Jy68qzc9rgaV1WZByf0m4b7VdzxRAsrfZAyhhCkAFlyf1iGmhQRGGl+RSJNoOcqAgNX/DB8XIU8TWV+wPcPQAHdqscbr1dV9AP97LZHtceVjgbkpABIkjqnAVCK3GAN6UaI8rpVoCS40ZDS5eH4A2wAKKZbnzABivmN+MG20RWgWAQpABIW1nhNzUmTMAIlKU1/cE/Ez5Eyz6fMq4Dh53ITUiajmz5f6223ljyGIQYwCNvNq7FR11fabl4/0qNvu/JRhO5eWaC7F8aqYD/YWH9tYDRI23c8pzwBFE/63BC64wEYDEFKFghSAAAAgOKjuxcAAACAkkKQAgAAAKCkEKQAAAAAKCkEKQAAAABKCkEKAAAAgJJCkAIAAACgpBCkjCmbdcubJ/TQmy2qNlvTN31oHpvtLZv9p0ucf73+tQ+fEbhnC2v02r036rWGcrMR0cY7zGOz/cRC/+nCs3MU3KgXr/HnQcFI8N+D1+6t0VqzZeelSXwGAABAGEHKGNb9SY+37utp99YY2vDfMzdrtlmf/rNXgOEwfb5eLGpgOLjdvf3e+uzn/hoAACQbIkiZorl1t6t+ze1aMX+KKxtAZIlWmP3svlde7MowzNrl1X36e9TlFwxgnepeta0HieXuTevcc+NNpvesgP58WmfNavAKaqKFJXnxv4kfDexM4KPpeourX6ftxNrR0zruFwAAgEEMGKSUzb/BBBwrpLYjOuPKBmaCmavmqcxtoUT8qUd9ZtX3yVZ/22O7Nz2gK7RXW6+t0iNu2aG7dMudbpfxLO09K67jn9vaa79Odfvbvqg2PfOKVj+ZWJ46YPfDmOAC1U97eU8BAEjnvIqKii/d44SL61S/qE+7mvfpjG0hqZsnHWrSrsOfuR1C7P41F+hI6ynNrJmnL1qf1Xsfu+dG2OrVq7Vnzx719va6ktxVVVWpq6tL586dcyW5K+SxsmFzLtYtkd7ffLmaW1xhGt5+lx3S1u93qvbNNap05X37HtPPN4Yq8He26KGGOW7DaN+uR9ZvcBsxtvXGBEcT3aYRPpZ/bT3aeW2tDriy6i0ntGq2edBvgqrv36x4PX6oc3rPT/NeZ/cN7hieY0nHz9atTzTq+sqz+uBffqRH33aFw8TmMdxT3a+mJ1u1zZV5bNelmxZpgtuUOkP72HyIGl104HVt0TJzjFhuSvJ+3vFnd+ipZ6KqN/vPcuVnzc/98K3sK9O2JaW+InwtaaRcf1T7X35dm5KCttjrD+TVnGzV6sZOtxFjW6BWanFgt+D1+9fkPUzreMsruu+g27Bs/lBtIG8kfE7v+Yne9Z66KnjsDF43AAAYUPqWlI+b1WQDFLc5uLm6smaGzhzapaOZ/QBGXERTv+keDmbiUq0zAYoaXYtL4zFNWvJAUouLl2juBQOxVpnt6pi9JiXxvHrLXdIvY/skjjVYN7NYgNJhzx8IUDI9p32dV2wwx5AJYLz9HtP7/XO06tWXNN3tkZ1btdCL1ibokiXLvJKR5iVgmwr+p6ZyHWtxaTpZboKMldoYepETql0Q4u33uvZHzX7hxO3IIt1z7yKdftkdr6XT+7miJvWvkra4a/evP6LFNyVfvx+gyAQDif2e+nxRynWtbTDvy87EPrHrjw0asK3Rlb/c5rVk2KAkvq9ZggGKd2+9ACT2fKuOV5igJCXZ3V6vCVBkAhhvP3dv75iv5W4PAACQnbwT52csrdGM6BH9bqBWFpSU7o3N6jDryobEiFaDsQHCC0+7jad/bSr55me/FQsGNqt2SUR9+34RaJXZoBdMAKLZdaqrdUXGgfWhlht3rEmXfS9twGADkViAEj+/J/NzWra1JtHCslUH/hA1wdc0zXAl2XleB+3NM9XbP+7b45WMLFMRro54LQXByvW2RlOZthXnq0KV6WibnnrmsHb7G9rdbu5FRUVKzsjxlkArxsGTXg7FRVOLNTJYp+6LX5Nv2zs2gIjo0nmJc8660DyOdmh3oHVl91vJr9va1hhqgTnYZgIGE6DNLs8yYIjd2z2B45lrNUGPKhalBID2PUi0sLh7G5kcb40CAADZyS9IiSzRPFMP6mrLtNUFI89U6K+t0tZ9tvvLHK1yifPp81GO6VBSgLBV3bbX3NRyP7C4c7EqTYXs2Nuh7l9eXsdQrTXuWGn43b4iaQIUI8tzhnNLujderkfy6O71/H0NamgY/q5eaS2s8CrBqXkNnTa2kCZHkirmZ9s7k4KB9MzPhir+w647qk/dwxgvb8e28mTdOhEbPS1L3r2N6qMjoXvr5ZJENPlrbtsJvwc2gLItL3T3AgAgN3kEKS5ZvrO1ZPJPkDm/su66Spltr2Uly7lBpn99mvm/36UqOFLYQxuWapK/S0LtS7o7uI9ZEnkiQXN0hQlQbOWy909+SVBW5xwXBhm6eJR8k+91qwqNYBa+bq/Sb1sxvO5obr90c4y4oYWDxxssB2Ugy6fa5Cm/G1fwWLZrXSJ3BgAAFEvOQUrZ/BWaF+nSe3uPuhKMTn7Lyk47LUia7lKD8ecUiQZyQ5KXeCuIDVBsEGGT2wPPe+dMYRPbbe6IDUQ+TLmejM8Jc5tKf7jbWDJ8cm6I7a6WxsFYzofNWzHb4fyQWAK+TW6PH8vtmyV/HhObwJ84TnAJdzMDAACFlWOQMkUzvmEHHJ6hK93cKN5S5w9DPKOG+VLGps1aMFvq+8Nv/ST2jLp1mbrj1Qs0yQYWO8Ijfg1kq5q/b1t4bKASypvJ8JzFYkf3amz8lR682hUMIz8vIxB4ePkiybkbvnLbWynD7l0jKaLls+1ralNTlpV+mwDvBR+BLm3L51Vqgg0s3gmP+JWG61I2YK7NAN26hscyPfic/Zw16vHbXBEAAONMjkHKZzra/KyatoeWZn9Ola5Wf5tuYKWnektq64Rt6aixXa/amwcdlrh6ix2K+JhaY8MGt9ys1nbbVSzNMQP81o+I5lwdG8nLn0wyfXevmA16YfNeE5CERuPK8JzFMZyje5XriVArwXUpgUenmg5ENaF6WVIi99oG212qU2/kMGzw8HL5IpFKLY9dv9ddK9zdyw4rHJ4U0g/E7AyJsfvht34EgzZ/Qsz03b38yRUnVC9KP9lk92G9YYKgWbWpo6QV3ywbe3mqlj9oQhYAAMaf9POkuLlR0k/OeEZHmnfoaLr6j/s55kkZ2kjNk5JuvhIrnKQeS15PEp6rxMlk3/A+9nyHvmUClamJ/fx9kudJScyHkjy/yZDndD+XNvk+D8M6T0pojo6B5iuJdZmKSxrFy0rMkxL8ef/nEvOuhLd96X82EwPPSRKcQyQ8r4l97qQWppzTv45g8JLufoTvhe1GdnCuuY7J4XtipR4zPE9Kyr21gvfXvUcp86vkadmGX+kn35lgzvWBfnbboyqFseQAABhO6YOUMYQgJTdpAwYAw+PqB/Wrf/q2JnT8Rg33Pe8KAQAYP/IbghgAUGDL9OBaE6DohH5DgAIAGKcIUgCgRNhuXo2NP9G39YF+1nC/CFEAAOMVQQoAlIg9m3+khoYGNZCHAgAY5whSkFa+M7MDAAAAuSJIAQAAAFBSCFIAAAAAlBSCFAAAAAAlhSAFAAAAQEkhSAEAAABQUghSAAAAAJQUgpQxZbNuefOEHnqzRdVma/qmD81js71ls//0GFO9xb7WE7p70zpXUjyxe+mfK3afP1Rdrf98MSy/ZqVeu/dGvXhNxGyV6wnz+LV7V2rjdP/50SGijXfY675RTyx0RblYWOMd47WGcrNRoGMCAICSRZAyhnV/0uOt+3ravfWoUPuS7jYBwC13uu2S1K7efrvuUXeLVzAM+nU66q9PdXsF41hUp07769N/9goAAMAYM0SQMkVz625X/ZrbtWL+FFeWUDb/Bu+5lKVuicrcPhhOrvLc36MuvyBFrPUheSlui0CxHFhfpUeurdLPN251JcUTD/g+Kf65Ynb7kZA+7fWikwGtbfBbFeKL19qQKtYyM9R+hRXVpmde0eonX9F9B11RLv58WmfN6uzn/j0BAABj24BBih+ArJDajuiMK0uvS+9tf1ZNwaV53xA/g2Hxpx71mVVKxbp/r7aayr2t4Ntl6z7pig3D021qbNiq7l6zGiQYLDzXehA9reN+gccGKPVq9YIAb3m5TWcralICELvfPdXS/pcH32+0OP65DdxoVQIAYKw6r6Ki4kv3OOHiOtUv6tMuG2xElmhF3TzpUJN2Hf7M7eCzgcyKBV+YIKV5GCtr2Vm9erX27Nmj3l5bq8xPVVWVurq6dO7cOVeSu0IeKxu2JWXVVBOkfP9mBet3XvnsqN7ffLmaW/wcjHVLerTz2lodcPv4uRhrNGnfY671Yp3qXn1AV/Ru1yM7ynX3hqWa5O+ovvg+MW7fiW7TCO7jn997mFZHY5VeeNp/HN43+Fwy/3or3Zat6MdeX4x3LKVe/8DHzMSterzxelVFP9DPbntUe1zpcPECl4pONT3Zqm22YPp8vXjTIn3aEmrNsHketRNN4PK6NmVa2fd+Rmp6+bSuM8ecIHueNs28Y6UW29SZkyZgauw0D2zeiCvzRNOex7bu3DO7Q089E1X9vTWa5crPHnhdP3xr8BYkAAAwdqVvSfm4mdaQcebAjr3qMxXLOVfn0Joye40e2rBAxza71pnGY5q05IGkvJLqLXdJv0y03sT2ibXexLpuPbLZXocfJMT3NUswYAjvm9adLXrIBVSxY8RajFLyXbzrn6bW+H5RVTbk0QXutoWqsuvIJVp+tVcyopbPq/SCiYNJ3a1MEPFdPwn90nnxSCJDE3Xdqsl6wwRBx1Wu6+5YpkvbX9dTB0xQUVGhtd4+iW5eq1ts0DKIyCLdc+8inY618pj9J1SvJCkeAIBxrACJ8zN0JfkoY8akaYM0ZwzomHZeG2iheHq/Osxq0tcTAc+B9cktGHr613q/3+xz2fdU+MGq1qnuujlS+/ak1pzujb/wzll53Uuhc9oWlkSLUffbh7yAbeo3XUG2njuoE3Yd/aN2v+2VDKOIZk42q0C3sFkXmiAkqZuYHSlspQksWrXfxBUTLgw0b2XEHK+9zW+lMSaYd3tLvNVjombm8IYebwm0shw86V3rRVOzDZ4AAMBYkVeQcubwjuRclO2t6orM04o1dSZ0wajS0jlwq8RQUnIzNuiFa4dKaHd5HcVQ+z3NMfXu1FHNturAH0xleuK05M9n/yEdKOgoXc/r/oYGNYxAV6/l1yzzulidbe/UbleWxBvK12+1+OFbuSahR/XRkUBXrNPR9OfKWLiVBwAAjHcFaEkJOqr3Wm11dYbKL/ZLMErUlsfzMYrCDS0cHFVssByUQhh4JK5pmj4KRzMbipffUW0ilJOtafM5ZtnRvWw+yZNZ5KAAAACMgAIHKcaZPi+X5YJJqUMWo4R9c5oXpHT8foO/XUg2QLFJ6e3b4/khdtk5YtO3DOf8JsNkYY0foETb9JSXuJ7gjYQVWaR6m6AeS6b3TNRk2+rCsL4AAKDEFDxIKSufqTITppzqTB4JDKXM5XDomA4NNqLVnYsDI2VlbvrVC0wAFNX7OzIIgFy3s2A+S9ZafqtjNvfkW+GZ9tep+jJTK2/fHxixrBjs6F6NanzuQS1zJUXljbhV7gcozxxO6Xq1+0iHN8fI8XdDzy2s0Kxw1y0AAIASUNgg5eI6rVhgQpRDu3SUes8okRgauKMxkDzuTV44RwtiI2HZ0bIabCCTPf9YwZHD7DkH6u7lT0g5ackPVO1KsrdVzW8c80btCo7kNX3TXeZ1Zhgs5WM4R/caIkDxdB/WGyelWbU1buQtww5LbH7u7IE9dP0CAAAlJ/08KW5ulPSjdJ3RkeYdXhAyY+ntujJpLrjEc6WCeVKSpZ2PxHbDWp9acffnSom4LTuC16813QQ0c/4QmidFqfOuhCUfyx9i+NC3zLWkmbMldX6T4Lwlqc8l2GsMzOuSEliFnje8+xG+Btc9rS/nuVKGa56U8FwkIfE5S3z+/Cluw8hpLhIvKIrNrWJHCavRLHcePyfGThhpnpM/N8sE92NJAgGV/zP9iTldPP5xL2KuFAAAxq30QcoYQpACAAAAjC6FT5wHAAAAgDwQpAAAAAAoKQQpAAAAAEoKQQoAAACAkkKQAgAAAKCkEKSMkBMnTjCyFwAAAJAGQQoAAACAkkKQAgAAAKCkEKQAAAAAKCkEKSPsy7o2nXu4wyxt+uvXXSEAAAAwjhGkjLDzmhfp/Icr9Q/vSv+xnkAFAAAAGCJImaK5dberfs3tWjF/iitLI7JEK8w+dj9vqVuiMvcUMnNec7O+qoi+nOEKAAAAgHFqwCClbP4NJuBYIbUd0RlXls6MpTYomalTzc+qabtbmvcN+jMY2JfT1rlHAAAAwPiUPki5uE4rvnFKu7bv0NHBog2z35XlZ3Sk2ewXdWUAAAAAkIf0QcrHzRm0hkzR3EUzpM4PCVAAAAAAFEweifNTNCkinelXPG8ltlx5sdsFWTim8/rcQwAAAGAcyz1IiUzRBWZVtuBy6Z1EPsquQ2c0o4ZAJXtbdd5n0l+/u0Z/cyUAAADAeJRHS4rvzKFdSd29zhzepSNme0bFXFeCTH3lhUqdv6VHf/XmTXmDYAUAAADjUu5BSvQzfeEeojD+dosJTn4gffVhE6w8fF3+ESQAAAAwCuVRD/5MfVGpbGJ4/pRYrspnbhuZ+an+Nlv6uz++pfNcSaplevC5RjU2Nurx21wRAAAAMMbkFaQcbeuSymuS8k9mLK3RDHXpyGGClMKbpckmALSqlj9oQhYAAABg7EkfpARnkK+b580eX7ag3o3edYPmuoqyN1Rxa5eXKB8f2WviEe3a3mzCFBTe82r63Vn3GAAAABibzquoqPjSPR6TVq9erT179qi3t9eV5K6qqkpdXV06d+6cKymkn+ovD6/Rl+8+qr9v3urK0rj6Qf3qn76tCR2/UcN9z7tCAAAAYOwgN3tUWaYH15oARSf0GwIUAAAAjFEEKSXiy7o6/UVRfeXD9K0oyzb8So2NP9G39YF+1nC/CFEAAAAwVtHdKwvF6O71ZV2b/td3/SSfr/5rpb6633sIAAAAjFu0pIyw85oX6XxvXhQCFAAAAMAiSAEAAABQUghSAAAAAJQUghQAAAAAJYUgBQAAAEBJIUgBAAAAUFIIUgAAAACUFIKUUrL4DZ17uMNb/rLYlQEAAADjDEFKqfj6y/qPf5zjTejInCkAAAAYz4aYcX6K5tbVa15EOnOoSbsOf+bKjcgSraibpzK3maKzVU17j7qNkVPqM87HeDPPX3JI//Czm3SeKwMAAADGowFbUsrm36D6NSuktiM648qSRPdp1/Zn1RRemv39u06OfIAymnw51USCAAAAAAYIUi6u04pvnDJByA4dTRuhDGzGAtu60qXOj10BAAAAAGQhfZDycbOamvelb0EZTGSJ5pXbrmHvmTAFAAAAALJX0MT5WCvKkWDuCgAAAABkoXBBCq0oefip/jZb+rs/vkXSPAAAAMa9ggUptKLk4qf6izcvymJ95eFK/X3zVlcOAAAAjF+FCVJoRcnRP+urJjg5/+H9+psJVv6jbp0rBwAAAMavggQptKLk65/1lXbpr5dco0EmrQEAAADGhfyDFFpRAAAAABRQ+iDFzia/5nbV28XNKl+2oN7fXnOD5gbmHfRbUc7oVCetKAAAAADyd15FRcWY7mG0evVq7dmzR729va4kd1VVVerq6tK5c+dcSeH87ZYO/fuUvfqHn93ECF8AAAAY1wo2uhfyc15v1D0CAAAAxjeClBJxXk+PNGmp/rrYFQAAAADjFEFKqdh/nc7/12P6yz/aeVM69BeCFQAAAIxTBCmlxAYq3rwplfrqflcGAAAAjDMEKQAAAABKCkEKAAAAgJJCkDJC7HDG559/vtsCAAAAEEOQAgAAAKCkEKQAAAAAKCkEKQAAAABKCkHKmLJZt7x5Qg+92aJqszV904fmsdnestl/GkW2TnWv2vv/oepqzeadLf79f/UlTfd3KIJyPXHvjXrt3hqtNVvLr1lpHpvthnL/6XEloo132HsRW1ZqY/FufML0+Xoxfs4b9cRCV56D2Pv34jURsxV7b4fpdQAAUEIIUsaw7k96vHVfT7u3zp4f9Ny9aZ3bRlb+1KM+u+7tVLdXUHy7e/u99dnP/fX4EtWmZ17R6ifN0tLpyorMBig3LZIOvO6d96kDUc2qLVRQ0a/TUX99arg+QAAAlIghgpQpmlt3u+rX3K4V86e4spCL67zng8uVF7vnMMza5dVR+3vU5Rekqn1Jd3utLWmWUdDiEm8dCrdOuNd1y51ue0RsVXevXfeou8UrGAauIhs9reN+wSBi38wnFv8bewwk3jIVW+6Yr+XuOWv5vEpNUKfeeMuLJrT7SIfOKqLJX/M2UySO57d8hcWCzE97/eMBADBeDRiklM2/wQQcK6S2IzrjysK8fWou0JHmZ9W03V92HTqjGTUEKiXBfZPf98lWf9tquVk/v7ZKj5hl6z5bETqmnW77kfUb/H1KXtS8rqWqHdGAJAMtnf79z7klKwd/Pm0qyamVXL9yXKNZJ1v9lga3bNGyvLonjV1+17F7qvvVFL9frToeWaR7UgKMiZqZUctJRMtnR3T2QJsJKMu1cMj7HtWp03aVSQAKAMDYcl5FRcWX7nGCbR1Z1Kddzft0JrJEK+rmSYeatOvwZ24Hy7ay1Gtef6ua9h51ZdZcXbmmRhek7D8yVq9erT179qi31/uKOy92bpOuri6dO3fOleSukMfKlW2VWLekxwQptTrgyiy/fOBv2Pv2PaafbwwEPjb3omGO2zDatwcCHpun8YDm/OExtU57QKtmu5//5AfuZ6J6f/Plas6w5cG/Nun9fT26Ytr+xHlsS8qGpeprrNILT/tFsbJJbjPlXN51Szs396jG288GbL/WdHO9V0w0zye9jtT7knIfsrRsw6/0k+9M0ImdDbr/OVdYDIEuST903/gPzFbOV2px/GVGtf/l17Up0N1obcONqpcJdt6JeMed4MqPt7yi+w66DccGR/dUJ+7Z2fA1LKzRa7UTvXOcusoct8KVq9MEB63a5rYs77zx5w0bcDUO0K0rcNzgtWfM+/ny1NcUvpduP/91yd271Gv3eD9bqY9ir9Xew4GuHwCAcS59S8rHzWqyAYrbHNTEKSpzDz2RKbrArL7oG/kABbnp3ni537Jy7XZ1mG1bGfe3/SVYMfe6XzVMM5X/2PPmZ2avSe06dtldqul5zGu9mWQe322DA+/4Ec25Ooecl7f3m/PU+QnqaW3WLT+WdgSue2d7RFdscEntcdNU8+NpavWuZY5qXr3LC6i8VqbZi70BCKzqLSdcQOeOt3mvtOSBPPJ1lmn5JX71vmrBrd66WNZeZQOJRJekgdnuYKaSfTrR2vKUiV4X35Qmx6LCVM5vmqw34vul5mLYoCKpJeLlNnMjV6bpYhYx53CVdm/f17U/Wq76QNcqG+wsPOqO44511l5DkQYIWDvXHDfapqZQ0KXuTn1kbuOE2eX+tR1sM9dqt5fpRXvvzEs73pImQDG8rmHRDu02QdO2oyY4qahI2+ULAADklTj/mY6+c0RnIvO0Yk2dZtgi1+pS1tmq9z72dsKYtlm1SyImiPlFoCVkg15oPGYq+MkBxKSJPWqNBTcTzc80JlpvJk2b7R5lY4Na9mmQAMdcx/dvTkpYP7Bjr/pSgiJTq/zDrxPXokPaEQ/Cpmm6fQ21L6nGXGJH4Jptt7kdNuBa8oN4IJOdPdr9R9sxSzpx6HlvXRwRzZxsVhl0GVp+zSLNsi0YgW/3d7+1x1TCTRBxVTgYsC0sicr47nAuxvT5uq4iVGHvPqwtJpiZUL0opXJuWyISrQpR7W43Nf/IZHM9vt1vvZ7comGO9cZJsy5KRb9cC22LzWlzHX5BgOuCFb+22LVGvEDQBmTh1iSf6+rV3ukf0+uWl0mXLwAAxqf8RveK7tOu7U06Ep2hK23SvOsWltz9C2PWnYtVaSppx94OdXnycmEimvpNt2217w90KYuq90/uYR66NzarL5sgweWIJAtdf5qRuKZfvcDrCnYo1o3M8UdPc4FMDvZs/pEaGorc1UsTNTnUcBFOBvdzUvxKtE6eDLUCuEq5OUgwYVyuRWAgsYTyg6EKu58YnprDEc6hsUGJzQFJ1yIRc/zz5J8ZCX5rUewGl+s610oUywGKB1DTy3VpJKqPjrhrdi0ys2yLDQAASJFfkGJbTtbUa56OmGDlWTW1dqlsQb3qYy0rGNOmf32a+b/tQhUaJSwpD6SYNuhQ+xzVDNDlyuuKFryuN9eYoCp7M6bZiuccrUo6llmCeTglKzaMbYIfALguU64sHszYLlSBAMYuSXkgGZp1oT1YuepDx7L5G7lJHZksmOtSFOHALGxhjXdvbN6KvZ9NJ6UJ1Su9oM97/YHWKz9oCw4l7FpgKhYxBwoAAGnkEaTM1ZW2a1fUBCix/BUvl8WOBjZDVy6d6+2FsctvSbDJ6Im8j+AST2AvItuFS5d9L2WyxFiSe0dj8Jr8HJtsdfXYWn5gFLSkJfOk/5ER7p40EBfMhEb/ii/PHE7T9WlgfiuH3/0p9XjZJrPbAKVGs6JteipwHJsHUxypgV1Covvcf5pqR1dItBZta7S5NCZAqV2p6+w+8e5irpUqFLT5QVZEl84rcrAFAMAolHuQ4hLk1f9ZcoJ99DN9YdfhhHqMQv68KwPmjKTr1jXcWn5rwocFqk66hnWqvsxU/Pr3qqUAgVK+3boGYkf3amxs1OO3uYIi8ZK0TQV58PyHAbp15Wigbl05WVjhBVjH380uUMpdLM+kUsvD179wkZ8cb67lI68g+Bqj2rTTtk5FNCES1f53XI6N19Ur0eISDNb8pHuXhJ+tqx/Ur8znp7HxcRV36AUAAIZf7kFK9KhO2W8byy/X3MAXgWXzL/e6ep35t6OZjQ6GEuYmJxxoFK2Wm9XaLlU2hEfMGk5b1fxGj664boHbttx1TzTBS+y6vMkec+vupad/rff7bbe2lhyT5NMZvtG9dLDV64o0qzaWf5LetndMBdvOA1KIEbO8Ua/sqF3pJy3Mipv7JZi/kZwLUni737JzmYSvv1xP2O5qbtSv+D4pgwpYifKB8nMGDYYyMWuyOa5VpWs3LPMeAQAwVqQPUrxcEzeDvO3SZYr8XBNbdoMLSj7T0WabNF+meW5WerusWFCmrtZnS2KOFKThZma3ORX+nB+BXIs0M84fWP+Yq6C7fcwSHHb3wHo7KaRS81LCM8IX09P71TExkpQHk3LdG2LDDOfCBELft0MYp8lLyXmW/uEa3cu3rfEVrW7p9AKVeF6HN8dJoPLcfVg/tBMWpslLyX7Cx6g2PWPzNNLkpWQbBNnrMtcezJe57vPXU7t72XlIYufwcl9skOG2QzPFD61T98WGQo4dMzYZZrzrm90ndL+8eVD8/BTvehvmDjAggS82KlpOXb6ea9IHoVsAAMBYkX4yxzGEyRwB5GWgiR1LwLBNCAoAwDDLb3QvABjr3ISNs76baI2x3c2yb10qsKsf1DoToKjjNwQoAIAxhyAFAAZlu6616rjN13Hduuonp5mNftgs04PPNarxn74t/e5nariv+N0FAQAYbnT3ygLdvQAAAIDioyUFAAAAQEkhSAEAAABQUghSAAAAAJQUghQAAAAAJYUgBQAAAEBJIUgBAAAAUFIIUgAAAACUFIKUMWWzbnnzhB56s0XVZmv6pg/NY7O9ZbP/dInzr9e/9uEzAvdsYY03IeBrDeVmI6KNd/gTBI74DOYhdlZ1e10vXhNxJRjQ9Pl60ZvosUZrXVGpGOp9XH7NysDz5XrCex0rtXG6/zwAACOBIGUM6/6kx1v39bR7awxt+O9ZVKdO++vTf/YKMBxcUDFUYOhX4Esv8Ciefp2O+utT3V4BAAAjYoggZYrm1t2u+jW3a8X8Ka4s5OI67/n4snSuewLDr129/WbV36Muv2AA61T3qm09SCx3b1rnnhtvMr1nBfTn0zprVmc/tyceTKKVJbYMZ6vGtsZXtPrJV/TDt7xa68hJG1CUWAtU92H90Nyr1U+2apsrKhVDvY+7vX8A0qe9I/w+AwAQMGCQUjb/BhN0rJDajuiMKwvz9qm5QEean1XTdrs06cjEGtXXLVGZ2wcj6E896jOrvk+2+tse273pAV2hvdp6bZUeccsO3aVb7nS7jGdp71lxHf/cVg7D31zbbjcrtVhtesqr/PrLFi0ruW5hI2H5Ncu0OBLV/pdf0X0HXSEKwLXsRU/ruF8AAMCIOK+iouJL9zjBto4s6tOu5n06E1miFXXzpENN2nX4M7eD4cq/aH1W733syiz7szUz1BUuHyGrV6/Wnj171Nvb60pyV1VVpa6uLp07d86V5K6Qx8qGzblYt0R6f/Plam5xhWl4+112SFu/36naN9eo0pX37XtMP98YqsDf2aKHGua4DaN9ux5Zv8FtxNjWGxMcTXSbRvhY/rX1aOe1tTrgyqq3nNCq2eZBvwmqvn+z4vX4oc7pPT/Ne53dN7hjeI4lHT9btz7RqOsrz+qDf/mRHn3bFRaB7WZ0T7VMJfx1bRqq243Ncam1+S0xnWpK+kbfBjw1UssrappqjxtrjUnezz9nakvNcfNzKYHAoOf0zzcragKsZw5rt1fmuJ9Le8yB2JaUmxbp09jPDHoM28JigrvAyzh74PV4K4LNz6iv8B6m5R/TXb8rSxV4re7aJnjlxoCvWWp6+bSu8/a1P9+mmbHrPNmq1Y2d/r5DXL/lvU+zO8x5oqoPXGd4v/BrzeqeAwAwwtK3pHzcrCYboLjNtMomqczs0Rfe6eN2r9vMBZMG6B6GEhDR1G+6h4OZuFTrTICiRtfi0nhMk5Y8kNTi4iWae8FArFVmuzpmr0lJPK/ecpf0y9g+iWMN1s0sFqB02PMHApRMz2lf5xUbzDFkAhhvv8f0fv8crXr1JeWWE3yrFnrR2gRdsmSZV1JcEU3+mns4EFtJnnsy3tKy+snXtT9a7lVew3kUs2pv1D0XtiXvd8d8LXfP737r9cBxzPJym9ctLcWQ5zSV8AOmshyp1PLQjV471wY2nTqYc2XZBBAmQLEV8nQV7rUN5n3ZGXgNLZ2aUL0y3k0u1vUp9tpsxT3xOmKV+E7d57afsq/DCyqC+wUCwHg3LxMAnnRlaU3Udasm6w3zs8fNa7jujmW6tP11//gVFfH3aqjrj4ss0j33LtLpl5P3C7ayhV8rAACjSe6J82f6TIhSpkkD9Osqm0iQUoq6Nzarw6wrGxIjWg3GBggvPO02nv61qeSbn/1WLBjYrNolEfXt+0WgVWaDXjABiGbXqa7WFRkH1odabtyxJl32vbQBgw1EYgFK/PyezM9p2daaRAvLVh34g6kUTpymGa4kO8/roL15psr3x317vJJi2f1Wm9fdxgYWgyZu20py/Ft4K6pN79rtci0Mdwuz3/LH941qd7sNJCYP0mIwgAzOuftIh7lLEV06L1i5Ns9X2G/82wKtPNmwrQw1mnWydcD8im2NoZang20mgDJh5ezyeDA2Msx9aE+87gnmX+GW+GuYqJnuH0E213+8JbDvwZPe5+WiqaFgBgCAUSr3ICV6VKfMH88ZNXVJFb4ZS2tyrABieJgK/bVV2rrPVpDmaJVLnE+fj3JMh5IChK3qtr3mppb7gcWdi1VpKqjH3g51//LyOoZqrXHHSsPv9hVJE6AYWZ4znFvSvfFyPZJHd6/n72tQQ0Nxu3r5/G/z/W/ybStFFkniLjE/7Gx7Z3I3pEIKn7O7Ux+FK9cmQpll3ruPjtjXlL1ZtbYbVKeakgKkocRGTxtpodd92gSJ7uHgBrr+fFqjAAAofbkHKfpMR5ubdCQ6Q1cGRvcqP9nqdfc60x/IX0HJ8SvrrquU2fZaVrKcG2T616eZ//tdqoIjhT20Yakm+bsk1L6ku4P7mCWRJxI0R1eYAMVWznr/5JcEZXXOMSDRBct2E3ItK978KgmxeTDiSzBHokiGPqdrXQl0+fK6ep1sGzrHZgC25SDcRS2FGwkseG2D5aCUnNF+/QAAFEgeQYplA5XYyF7+8t6ZKbrAPPNFH0HK6OC3rOy004Kk6S41GH9OkWggNyR5ibeC2ADFBhE2uT3wvHfOFDax3eaO2EDkw5TryficY47fsuLlPVQsik+05ydH+6NcxfMYipyDkPE5vS5IsS5fflev40ezaQUJM4HPMyZYs/kYoUDNE0tit4nosesyy+C5IiVktF8/AAAFlGeQkqqsfKbKokd0pARG9kKhbdaC2VLfH37rJ7Fn1K3L1L2uXqBJNrDYER7xayBb1fx928JjA5VQ3kyG5ywWO7pXY+Ov9ODVrmBE+RX/fFonspfNOf0Eeq/Ll9fVqxBdlEyw1mICnYqalGTy5fMqNcF8zva/k0Eg1B3Vp2Y1VA6HP4dIImekmLK6/pFy2+Pm82/+DTz3oIZj6AgAwPhVwCDFn/hxxYIv9N5QI4NhxFRvSW2dsC0dNbbrVXvzoMMSV2+xQxEfU2ts2OCWm9XabruKpTlmgN/6EdGcq2MjefmTSabv7hWzQS9s3msCktBoXBmesziGb3SvtQ0r460lcdPn67qkAMHNDh4YHcob7rao3b2yO6eXQG9bPrwRuXJNmA852Orl6oRHvfIDimCyvj/hY/ruUv7rmFC9aOBBCSwv1yaixVelabkpsOyuf2Qsu8h2tzQi31b9bf5DAACKIX2QYudAieWZ1M3zJmYsW1Dv8k5u0Fz3N3TG0kQuSv2aes38tyY1bW8evpm7kbUD638h/Tg1n6PPDvObMrdJIrHeLqum2gkgk5POD6y3SfhKzREJBhZP13qJ+nbIYf/5BzT1jYG6ewWYgOTndtQubyjkRItKRucsiuEb3Wtbozn+quTcBBsI2LlCEnNquO5PgcT61757Wk8VtbtXlud0CfT253JNmE/H5urYblBJgUogePHv2UpNfneg7lJpXodZUgYmsCOZuZab2D7B0dbsnCWxci+Y8IYG9rfDLT1Dyur6h2LnenHX6wJIf6Q4uwwyWtwQ9mx+UyfcYwAAiin9ZI5jCJM55ibdxIoYZ1yORHwSxZy4yQntzPnhSQ4xKg3XhKYAgPGt4DkpAMaGWI7E6T+7glxML9elEen4uwQoY8Jtj5sARTr7u60EKACAoiJIAWBEtLEhOLRvueqrTXSRV1J+uZ6wXY1OtubREoPScKsetwnzq6p0YmeDfrS5uN0dAQCgu1cW6O6FMS02BK7blB0KN6uJE53gcXI9BgAAGNcIUrIwnoIUAAAAYKTQ3QsAAABASSFIAQAAAFBSCFIAAAAAlBSCFAAAAAAlhSAFAAAAQEkhSBlTNuuWN0/ooTdbVG227DDCD9ntLZv9p8eY6i32tZ7Q3ZvWuZLiid1L/1yx+/yh6mr954th+TUr9dq9N+rFayJmq1xPmMev3btSG6f7z48OdsZ5e9036omFrigXC2u8Y7zWUG42CnRMAABQsghSxrDuT3q8dV9Pu7ceFWpf0t0mALjlTrddktrV22/XPepu8QqGQb9OR/31qZwnVxwrojp12l/nNRs+AAAoWQMHKZElWrHmdtXHlxs0136hG5ayX51muKcw3Fzlub9HXX5BiljrQ/JS3BaBYjmwvkqPXFuln2/c6kqKJx7wfVL8c8Xs9iMhfdrrRSeDi7U03Fujta4oLNYyE1+8Volii2rTM69o9ZOv5Dfr/J9P66xZnf3cvycAAGBsSx+k2MCjbqZONT+rpu3+8l5nmebVhQKVi+tUXzdPOtTk9mvSkegMXUmgUhr+1KM+s0qpWPfv1VZTubcVfLts3SddsWF4uk2NDVvVbecGHSQYLDzXehA9reN+geO6gc09qaaTriiNtQ036p5qaf/LfsCw+uU2na0wgc2wBCqFd/xzG7jRqgQAwFiV+YzzXuDiByS7Dn9mCqZobl295vW3qmnvUX8fz1wTpNTogvh+I4sZ55PZlpRVU02Q8v2bFazfeeWzo3p/8+VqbvFzMNYt6dHOa2t1wO3j52Ks0aR9j7nWi3Wqe/UBXdG7XY/sKNfdG5Zqkr+j+uL7xLh9J7pNI7iPf37vYVodjVV64Wn/cXjf4HPJ/OutdFu2oh97fTHesZR6/QMfMxO36vHG61UV/UA/u+1R7XGlhWdzM1Zq8rt+K4UNROorOtX0ZKu2uT080+frxZsW6dOWUGuGbX2pnWgCl9e1KdPKvvczUtPLp3WdOeYE2fO1aaa5jsX2C4yTrVrd2Gke+NfmlXmiac9jW3fumd2hp56Jqv7eGs1y5WcPvK4fvpVBCxIAABiTcs9JiczVTFMB6ToZDFCksvmXe60oZd+YqzK/CKPAgR171WcqlnOuzqE1ZfYaPbRhgY5tdq0zjcc0ackDSXkl1Vvukn6ZaL2J7RNrvYl13Xpks70OP0iI72uWYMAQ3jetO1v0kAuoYseItRil5Lt41z9NrfH9oqpsyKML3G0LVWXXkUu0/GqvpEj8rlRDdaNaPq/SCyYOJu1ngojv+knol85L149zMBN13arJesMEQ8dVruvuWKZL21/XUwdMUFFR4bqbJbp5rW6xQcsgIot0z72LdDrWymP2n1C9kqR4AADGscyDlLJJXtDxRZ9rHfG2z6jvjL9pzVh6u1Z845TeO2QKI5N0gSvH6DFp2iDNGQM6pp3XBloont6vDrOa9PVEwHNgfXILhp7+td7vN/tc9j0VfrCqdaq7bo7Uvj2pNad74y+8c1Ze91LonLaFJdFi1P32IS9gm/pNV5Ct5w7qhF1H/6jdb3slI2rWhSYISeomZruIrTSBRav2m7hiwoWB5q2MmOO1t8VbayaYd3tLvNVjombm8IYebwm0shw86V3rRVOzDZ4AAMBYkWGQMldX1tj2kS51fuyXJLNdvG7XvP4mNTXv0xeuFKNIS+fArRJDScnN2KAXrh0qod3ldRRD7fc0x9S7U0c126oDfzCV6YnTknOm+g/pQEFH6Xpe9zc0qKGoXb1y5CXY+60WP3wr1yT0qD46EuiKdTqq3e5hbsKtPAAAYLzLIEjxc0xm6IyONDenJgqX2dG9aqTWZ0siBwU5qi2P52MUhRtaODiq2GA5KIUw8Ehc0zR9FI5mlq9ZdnQvm0/yZBY5KAAAACNgiCDFJsfbAEXqat2ho4EvT3Wmz4QtZZpX448C9l6gheWCiWVStI8WldHkm9O8IKXj9xv87UKyAYpNSm/fHs8PscvOEZu+ZTjnNxl53khYkUWqtwnqSUn1EzU5wrC+AACg9AwSpLjRu0wlpqs1OQjxRI/qlA1aOj9MDl40V+XlJob5t6MmiMHo4HI4dEyHBhvR6s7FgZGyMjf96gUmAIrq/R0ZBECu21kwnyVrLb/VMZt78q3wTPvrVH2ZzafYHxixrBjs6F6NanzuQS1zJSNp95EOb46R4+8eTu6WtbBCs8JdtwAAAErAAEHKEAGK5zMdbeuSymt05cWuKNbyEj2i39H1a5RIDA3c0RhIHvcmL5yjBbGRsOxoWQ02kMmef6zgyGH2nAN19/InpJy05AeqdiXZ26rmN455o3YFR/Kavuku8zozDJbyMWyje2Wo+7DeOCnNqg1M9GiHJa4t19kDe+j6BQAASk76eVLsJI1eonw6Njcl0PUrvK8JUHY17yuZVhTmSUmWdj4S2w1rfWrF3Z8rJTbCkh3B69eabgKaOX8IzZOi1HlXwpKP5Q8xfOhb5lrSzNmSOr9JcN6S1OcS7DUG5nVJCaxCzxve/Qhfg+ue1pfzXCnDNU9KbG4UtxEWn7PEF943p7lIkuZWsaOE1WiWO48354k3YaR5Tv7cLBPcjyWJtumpZ/xWHf9n+kNzu/jHvYi5UgAAGLcyn8xxlCJIAQAAAEaXDIcgBgAAAIDhQZACAAAAoKQQpAAAAAAoKQQpAAAAAEoKQQoAAACAkkKQAgAAAKCkEKSMkBMnTjD8MAAAAJAGQQoAAACAkkKQAgAAAKCkEKQAAAAAKCkEKSPsy7o2nXu4wyxt+uvXXSEAAAAwjhGkjLDzmhfp/Icr9Q/vSv+xnkAFAAAAGDhIiSzRijW3qz6+3KC5Efdc2MV1bp86zXBFyM55zc36qiL6khsIAACAcS59kGIDlLqZOtX8rJq2+8t7nWWaVxcOVObqShucVLSb510R8vLltHXuEQAAADA+pQ9Sovu0a/sOHY26baPr0BGdUZlmlk9xJVM0t65GajVBzN6jrgwAAAAA8pNHTspnOtr8rN772G0CAAAAQAFkHqSUTVKZWX3R95m/jQI7pvP63EMAAABgHMswSJmrK2tsRneXOmk5KZKtOs/Ef3/97hr9zZUAAAAA41EGQYpNjq/RDJ3RkeZmE6agWL7yQqXO39Kjv3rzprxBsAIAAIBxaYggxU+O99pQWpMT6VF4f7vFBCc/kL76sAlWHr4un4QhAAAAYNQapB5sA5R6zYvYAIUE+eL7qf42W/q7P76l81wJAAAAMB4NEKQQoAAAAAAYGedVVFR86R4n2BnkvUT5dGxuit/1a8bS23VluSsO62wtiflTVq9erT179qi3t9eV5K6qqkpdXV06d+6cKymkn+ovD6/Rl+8+qr9v3urKAAAAgPEnfZAyhhCkAAAAAKMLudkAAAAASgpBSon4sq5Of1FUX/mQVhQAAACMbwQpI+zLujade7hD/+u7EX31Xxfp7z5xTwAAAADjFEHKCDuveZHO9+ZFqdRX97tCAAAAYBwjSAEAAABQUghSAAAAAJQUgpQsnDhxokjDDwMAAACIIUgBAAAAUFIIUgAAAACUFIIUAAAAACWFICUXZf9Nr61uVkt8+e96tMw9BwAAACAvBCm5OPNftfq1OtXa5d12VwgAAACgEM6rqKj40j1OFlmiFXXzlGggOKMjzTt0NOo2nRlLb9eV5W7D6mxV096jbmPkrV69Wnv27FFvb68rKbCv/0It352u9974v+vBM64MAAAAQM7St6R4AcpMnWp+Vk3b/eW9zjLNq7tBcyNuH8MLUGSCErdPU/MRnSmvUf3SuW4PAAAAAMhO+iAluk+7tie3mnQdMgGIyjSzfIorMWV7TWASbDUxP3ek06zLZ2uGXwIAAAAAWSEnBQAAAEBJyTxIKZvk5ad80feZv53WFJVNNKton77wCwAAAAAgKxkGKXN1ZY3twNWlzo/9knTK5q/QvIh05t+OihxyAAAAALnIIEgxAcqaGs3wRvdqNmFKemXzb9CKBWXe6F67Dg/W2gIAAAAAAxsiSJmiuXU2QJG6WlOHH467uM4PUKJHtKuEhh8GAAAAMPoMEqTYAKXe677V1fqs3huom5cJUOptVzAboDTvo5sXAAAAgLwMEKQQoAAAAAAYGelnnI8FH2nFZp5PBDJplcjM88w4DwAAAIwu6YOUMYQgBQAAABhdMhyCGAAAAACGB0EKAAAAgJJCkJKLsv+m11Y3q8Uu353tCgEAAAAUAjkpAAAAAEoKLSkAAAAASgpBCgAAAICSMua7e/34xz92jwY395JveusH/suD3hoAAADAyBgXQcozLz/jttK746Y7CFIAAACAEjFugpRz5865klR33X5XPEi55yf3emsAAAAAI4OcFAAAAAAlZZwEKef0VtMpddrlZ//uygAAAACUonESpJyva+pnqrx+mo5V9RCoAAAAACVs4CDl6gf1q8ZGNcaXX+nBq91zzrINvwo875YnbnXPlqL/pFfe+9+kKX/RelcCAAAAoLSkD1JsgPJPl+iP/9KghgZ/+U3HBH37n5IDlT2bfxR/3lv+5QOdrby+xAMVI/IX+WnyAAAAAEpN+iDl7Uf1o4Yf6dG33bbx/G9MAKIJumTJMleShvm5NzvM+sKZGmQvAAAAABjQOMlJAQAAADBaZB6kzJqsCWbV8+kefzud2x7X9ZXSid2PapC9RtSW7r93jwAAAACUogyDlFv1+Koqsz6hg8/5JXEmMIknzZt9zv7uZ7o/vE8paf+qoua//9uDf3UFAAAAAEpJBkGKCVAar5cJP/TBv9yv511p3HP3B5Lnf6Y/XvITE7A8bn6qRP32P2t+/Uz9/77W5c2bcphgBQAAACgpQwQpy/TgczZAkU7sTE6kT2+PHt1mE+yrtPA2V1Rqvvc/dNgEJ1cctPOmzNT8R//OPQEAAACgFAwSpNgA5Sf6dsQGKA2l3YUrC+uv+p+KmP/e/z9dAQAAAICSMkCQkmuAcqse/6dva0L0AzWNkaAGAAAAwPBKH6TcVu8FKFbVqsBs8t6SmNDx1ifCz10vmaCm4bbSHd0LAAAAQGk7r6Ki4kv3eEz68Y9/rGdefkbnzp3zttc/+JkeuvLv9X/VR/S/eyXSXbffpbmX+HPQ3/OTe701AAAAgJGRweheAAAAADB8xlmQ8u+68cr/KZ04P96KAgAAAKC0jJMg5ZzeajqlzqYezYleqEd+8p9cOQAAAIBSM25yUgZzx013xHNSHvgvD3prAAAAACNjXAQpmSBIAQAAAErDmA9SAAAAAIwujO4FAAAAoKQQpAAAAAAoKQQpAAAAAEoKQQoAAACAkkKQAgAAAKCkEKQAAAAAKCkEKQAAAABKCkEKAAAAgJJCkAIAAACgpBCkAAAAACgpBCkAAAAASgpBCgAAAICSQpACAAAAoKQQpAAAAAAoKQQpAAAAAEoKQQoAAACAEiL9/wE6zIboyexurwAAAABJRU5ErkJggg==;" vertex="1" parent="1">
          <mxGeometry x="41" y="80" width="809" height="564" as="geometry" />
        </mxCell>
        <mxCell id="rUgAbl-kOmLErmbOYtcg-2" value="" style="shape=curlyBracket;whiteSpace=wrap;html=1;rounded=1;flipH=1;labelPosition=right;verticalLabelPosition=middle;align=left;verticalAlign=middle;size=0.5;strokeWidth=2;fontColor=#FFFFFF;strokeColor=#FFFFFF;" vertex="1" parent="1">
          <mxGeometry x="365.5" y="220" width="124.5" height="120" as="geometry" />
        </mxCell>
        <mxCell id="rUgAbl-kOmLErmbOYtcg-4" value="" style="shape=curlyBracket;whiteSpace=wrap;html=1;rounded=1;flipH=1;labelPosition=right;verticalLabelPosition=middle;align=left;verticalAlign=middle;strokeWidth=2;size=0.5;fontColor=#f7eeee;strokeColor=#FFFFFF;" vertex="1" parent="1">
          <mxGeometry x="410" y="200" width="100" height="390" as="geometry" />
        </mxCell>
        <mxCell id="rUgAbl-kOmLErmbOYtcg-5" value="&lt;h1&gt;Object&lt;/h1&gt;&lt;p&gt;List of 1 or more key / value pairs separated by a comma&lt;/p&gt;" style="text;html=1;strokeColor=none;fillColor=none;spacing=5;spacingTop=-20;whiteSpace=wrap;overflow=hidden;rounded=0;fontColor=#f7eeee;" vertex="1" parent="1">
          <mxGeometry x="500" y="240" width="190" height="80" as="geometry" />
        </mxCell>
        <mxCell id="rUgAbl-kOmLErmbOYtcg-6" value="&lt;h1&gt;Array&lt;/h1&gt;&lt;div&gt;List of 1 or more comma separated items&lt;/div&gt;" style="text;html=1;strokeColor=none;fillColor=none;spacing=5;spacingTop=-20;whiteSpace=wrap;overflow=hidden;rounded=0;fontColor=#f7eeee;" vertex="1" parent="1">
          <mxGeometry x="510" y="390" width="190" height="90" as="geometry" />
        </mxCell>
        <mxCell id="rUgAbl-kOmLErmbOYtcg-9" value="&lt;h1&gt;Key&lt;/h1&gt;" style="text;html=1;strokeColor=none;fillColor=none;spacing=5;spacingTop=-20;whiteSpace=wrap;overflow=hidden;rounded=0;fontColor=#FFFFFF;" vertex="1" parent="1">
          <mxGeometry x="100" y="20" width="70" height="40" as="geometry" />
        </mxCell>
        <mxCell id="rUgAbl-kOmLErmbOYtcg-12" value="&lt;h1&gt;Value&lt;/h1&gt;" style="text;html=1;strokeColor=none;fillColor=none;spacing=5;spacingTop=-20;whiteSpace=wrap;overflow=hidden;rounded=0;fontColor=#f7eeee;" vertex="1" parent="1">
          <mxGeometry x="210" y="20" width="70" height="40" as="geometry" />
        </mxCell>
        <mxCell id="rUgAbl-kOmLErmbOYtcg-15" value="" style="endArrow=none;html=1;rounded=0;entryX=0.5;entryY=1;entryDx=0;entryDy=0;strokeWidth=2;fontColor=#f7eeee;strokeColor=#FFFFFF;" edge="1" parent="1" target="rUgAbl-kOmLErmbOYtcg-9">
          <mxGeometry width="50" height="50" relative="1" as="geometry">
            <mxPoint x="140" y="100" as="sourcePoint" />
            <mxPoint x="190" y="50" as="targetPoint" />
            <Array as="points" />
          </mxGeometry>
        </mxCell>
        <mxCell id="rUgAbl-kOmLErmbOYtcg-21" value="" style="endArrow=none;html=1;rounded=0;strokeWidth=2;fontColor=#f7eeee;strokeColor=#FFFFFF;" edge="1" parent="1">
          <mxGeometry width="50" height="50" relative="1" as="geometry">
            <mxPoint x="240" y="100" as="sourcePoint" />
            <mxPoint x="244.5" y="60" as="targetPoint" />
          </mxGeometry>
        </mxCell>
      </root>
    </mxGraphModel>
  </diagram>
</mxfile>
